<svg id="svg" version="1.1" xmlns="http://www.w3.org/2000/svg" xmlns:xlink="http://www.w3.org/1999/xlink" width="400" height="124.15254237288136" viewBox="0, 0, 400,124.15254237288136"><g id="svgg"><path id="path0" d="M170.167 80.357 C 170.167 80.605,169.656 80.988,169.315 80.995 C 169.167 80.998,168.906 81.188,168.734 81.417 C 168.562 81.646,168.286 81.833,168.122 81.833 C 167.957 81.833,167.780 81.946,167.727 82.083 C 167.674 82.221,167.527 82.333,167.399 82.333 C 167.271 82.333,167.167 82.407,167.167 82.497 C 167.167 82.587,166.979 82.707,166.750 82.765 C 166.521 82.822,166.333 82.936,166.333 83.018 C 166.333 83.100,166.221 83.167,166.083 83.167 C 165.946 83.167,165.833 83.279,165.833 83.417 C 165.833 83.554,165.711 83.667,165.561 83.667 C 165.411 83.667,165.125 83.835,164.926 84.042 C 164.479 84.503,163.921 84.833,163.586 84.833 C 163.447 84.833,163.333 84.914,163.333 85.012 C 163.333 85.280,162.893 85.667,162.587 85.667 C 162.439 85.667,162.144 85.854,161.931 86.083 C 161.719 86.313,161.385 86.500,161.189 86.500 C 160.984 86.500,160.833 86.606,160.833 86.750 C 160.833 86.888,160.721 87.000,160.583 87.000 C 160.446 87.000,160.333 87.075,160.333 87.167 C 160.333 87.258,160.194 87.333,160.023 87.333 C 159.853 87.333,159.576 87.516,159.408 87.740 C 159.240 87.964,158.930 88.190,158.718 88.243 C 158.506 88.296,158.333 88.413,158.333 88.503 C 158.333 88.593,158.221 88.667,158.083 88.667 C 157.946 88.667,157.833 88.779,157.833 88.917 C 157.833 89.072,157.676 89.167,157.417 89.167 C 157.188 89.167,157.000 89.242,157.000 89.333 C 157.000 89.425,156.887 89.500,156.750 89.500 C 156.612 89.500,156.500 89.612,156.500 89.750 C 156.500 89.889,156.352 90.000,156.167 90.000 C 155.983 90.000,155.833 90.075,155.833 90.167 C 155.833 90.258,155.721 90.333,155.583 90.333 C 155.446 90.333,155.333 90.446,155.333 90.583 C 155.333 90.721,155.221 90.833,155.083 90.833 C 154.946 90.833,154.833 90.908,154.833 91.000 C 154.833 91.111,131.698 91.167,85.762 91.167 C 24.587 91.167,16.662 91.195,16.440 91.417 C 16.303 91.554,16.144 91.667,16.088 91.667 C 15.847 91.667,14.667 92.847,14.667 93.088 C 14.667 93.144,14.554 93.303,14.417 93.440 C 14.047 93.810,14.047 98.965,14.417 99.106 C 14.554 99.159,14.667 99.290,14.667 99.398 C 14.667 99.505,14.813 99.698,14.991 99.827 C 15.169 99.955,15.277 100.123,15.231 100.198 C 15.184 100.274,15.271 100.384,15.424 100.443 C 15.578 100.501,15.893 100.726,16.126 100.941 L 16.549 101.333 162.774 101.333 C 260.147 101.333,309.000 101.278,309.000 101.167 C 309.000 101.075,309.112 101.000,309.250 101.000 C 309.387 101.000,309.500 100.896,309.500 100.768 C 309.500 100.641,309.688 100.489,309.917 100.432 C 310.186 100.364,310.333 100.210,310.333 99.997 C 310.333 99.814,310.445 99.667,310.583 99.667 C 310.721 99.667,310.833 99.554,310.833 99.417 C 310.833 99.279,310.908 99.167,311.000 99.167 C 311.104 99.167,311.167 98.150,311.167 96.450 C 311.167 93.759,311.012 92.838,310.561 92.835 C 310.457 92.834,310.332 92.678,310.282 92.488 C 310.232 92.297,310.036 92.101,309.846 92.052 C 309.656 92.002,309.500 91.895,309.500 91.814 C 309.500 91.733,309.396 91.667,309.268 91.667 C 309.140 91.667,308.992 91.554,308.940 91.417 C 308.855 91.195,301.902 91.167,247.755 91.167 C 207.141 91.167,186.667 91.111,186.667 91.000 C 186.667 90.908,186.479 90.833,186.250 90.833 C 185.991 90.833,185.833 90.739,185.833 90.583 C 185.833 90.446,185.748 90.333,185.644 90.333 C 185.540 90.333,185.281 90.146,185.069 89.917 C 184.856 89.688,184.567 89.500,184.425 89.500 C 184.283 89.500,184.167 89.425,184.167 89.333 C 184.167 89.242,184.054 89.167,183.917 89.167 C 183.779 89.167,183.667 89.054,183.667 88.917 C 183.667 88.779,183.554 88.667,183.417 88.667 C 183.279 88.667,183.167 88.593,183.167 88.503 C 183.167 88.413,182.994 88.296,182.782 88.243 C 182.570 88.190,182.260 87.964,182.092 87.740 C 181.924 87.516,181.647 87.333,181.477 87.333 C 181.306 87.333,181.167 87.258,181.167 87.167 C 181.167 87.075,181.054 87.000,180.917 87.000 C 180.779 87.000,180.667 86.920,180.667 86.821 C 180.667 86.527,180.214 86.167,179.845 86.167 C 179.649 86.167,179.500 86.058,179.500 85.917 C 179.500 85.779,179.415 85.667,179.311 85.667 C 179.207 85.667,178.948 85.479,178.735 85.250 C 178.523 85.021,178.233 84.833,178.091 84.833 C 177.949 84.833,177.833 84.758,177.833 84.667 C 177.833 84.575,177.721 84.500,177.583 84.500 C 177.446 84.500,177.333 84.387,177.333 84.250 C 177.333 84.112,177.221 84.000,177.083 84.000 C 176.946 84.000,176.833 83.925,176.833 83.833 C 176.833 83.742,176.646 83.667,176.417 83.667 C 176.188 83.667,176.000 83.580,176.000 83.473 C 176.000 83.183,174.984 82.333,174.637 82.333 C 174.470 82.333,174.333 82.248,174.333 82.143 C 174.333 81.887,173.819 81.512,173.458 81.505 C 173.298 81.502,173.167 81.387,173.167 81.250 C 173.167 81.112,173.054 81.000,172.917 81.000 C 172.779 81.000,172.667 80.925,172.667 80.833 C 172.667 80.742,172.554 80.667,172.417 80.667 C 172.279 80.667,172.167 80.554,172.167 80.417 C 172.167 80.222,171.944 80.167,171.167 80.167 C 170.529 80.167,170.167 80.236,170.167 80.357 " stroke="none" fill="#fcac14" fill-rule="evenodd"></path><path id="path1" d="M18.708 8.777 C 18.364 8.916,18.473 9.588,18.917 10.068 C 19.146 10.315,19.333 10.556,19.333 10.604 C 19.333 10.761,19.806 11.167,19.988 11.167 C 20.086 11.167,20.167 11.327,20.167 11.523 C 20.167 11.718,20.354 12.052,20.583 12.265 C 20.813 12.477,21.000 12.741,21.000 12.851 C 21.000 12.962,21.188 13.298,21.417 13.598 C 21.646 13.899,21.833 14.224,21.833 14.322 C 21.833 14.420,21.909 14.500,22.000 14.500 C 22.092 14.500,22.298 14.800,22.456 15.167 C 22.615 15.533,22.840 15.833,22.956 15.833 C 23.072 15.833,23.167 15.946,23.167 16.083 C 23.167 16.221,23.242 16.333,23.333 16.333 C 23.425 16.333,23.500 16.428,23.500 16.543 C 23.500 16.659,23.688 16.956,23.917 17.203 C 24.146 17.450,24.333 17.770,24.333 17.915 C 24.333 18.059,24.446 18.220,24.583 18.273 C 24.721 18.326,24.833 18.473,24.833 18.601 C 24.833 18.729,24.890 18.835,24.958 18.837 C 25.027 18.838,25.305 19.213,25.576 19.670 C 25.847 20.126,26.166 20.500,26.284 20.500 C 26.403 20.500,26.500 20.687,26.500 20.917 C 26.500 21.146,26.574 21.333,26.663 21.333 C 26.753 21.333,26.874 21.521,26.932 21.750 C 26.989 21.979,27.103 22.167,27.185 22.167 C 27.266 22.167,27.333 22.279,27.333 22.417 C 27.333 22.554,27.446 22.667,27.583 22.667 C 27.721 22.667,27.833 22.814,27.833 22.997 C 27.833 23.474,28.198 23.517,31.750 23.464 L 34.917 23.417 34.967 22.625 C 35.008 21.998,34.964 21.833,34.759 21.833 C 34.575 21.833,34.500 21.667,34.500 21.260 C 34.500 20.944,34.425 20.640,34.333 20.583 C 34.242 20.527,34.167 20.303,34.167 20.085 C 34.167 19.868,34.054 19.578,33.917 19.440 C 33.779 19.303,33.667 18.965,33.667 18.688 C 33.667 18.412,33.592 18.140,33.500 18.083 C 33.408 18.027,33.333 17.832,33.333 17.652 C 33.333 17.471,33.221 17.280,33.083 17.227 C 32.908 17.160,32.833 16.887,32.833 16.316 C 32.833 15.702,32.771 15.500,32.583 15.500 C 32.418 15.500,32.333 15.334,32.333 15.010 C 32.333 14.740,32.258 14.473,32.167 14.417 C 32.075 14.360,32.000 14.053,32.000 13.735 C 32.000 13.374,31.906 13.120,31.750 13.060 C 31.609 13.006,31.500 12.758,31.500 12.492 C 31.500 12.232,31.425 11.973,31.333 11.917 C 31.242 11.860,31.167 11.553,31.167 11.235 C 31.167 10.874,31.072 10.620,30.917 10.560 C 30.774 10.506,30.667 10.257,30.667 9.982 C 30.667 9.717,30.592 9.500,30.500 9.500 C 30.408 9.500,30.333 9.313,30.333 9.083 L 30.333 8.667 24.625 8.680 C 21.485 8.687,18.823 8.731,18.708 8.777 M25.089 27.491 C 25.029 27.588,24.699 27.667,24.355 27.667 C 24.012 27.667,23.585 27.777,23.407 27.911 C 23.229 28.046,22.727 28.158,22.292 28.161 C 21.856 28.164,21.500 28.238,21.500 28.326 C 21.500 28.413,21.228 28.536,20.895 28.598 C 20.505 28.672,20.261 28.823,20.209 29.024 C 20.164 29.196,19.948 29.382,19.730 29.437 C 19.512 29.491,19.333 29.603,19.333 29.685 C 19.333 29.766,19.146 29.833,18.917 29.833 C 18.657 29.833,18.500 29.928,18.500 30.083 C 18.500 30.221,18.422 30.333,18.326 30.333 C 18.231 30.333,18.062 30.406,17.951 30.495 C 17.238 31.069,16.833 31.477,16.833 31.624 C 16.833 31.717,16.721 31.886,16.583 32.000 C 16.446 32.114,16.333 32.348,16.333 32.520 C 16.333 32.693,16.253 32.833,16.155 32.833 C 15.924 32.833,15.500 33.257,15.500 33.488 C 15.500 33.586,15.439 33.667,15.365 33.667 C 15.223 33.667,14.667 34.824,14.667 35.122 C 14.667 35.218,14.554 35.341,14.417 35.394 C 14.279 35.446,14.167 35.679,14.167 35.911 C 14.167 36.143,14.092 36.333,14.000 36.333 C 13.908 36.333,13.833 36.587,13.833 36.896 C 13.833 37.206,13.721 37.553,13.583 37.667 C 13.446 37.781,13.333 38.090,13.333 38.354 C 13.333 38.618,13.258 38.833,13.167 38.833 C 13.075 38.833,13.000 39.208,13.000 39.667 C 13.000 40.296,12.939 40.500,12.750 40.500 C 12.547 40.500,12.500 40.769,12.500 41.917 C 12.500 43.300,12.509 43.333,12.899 43.333 C 13.118 43.333,13.341 43.446,13.394 43.583 C 13.467 43.775,13.783 43.833,14.745 43.833 C 15.470 43.833,16.000 43.904,16.000 44.000 C 16.000 44.098,16.583 44.167,17.417 44.167 C 18.531 44.167,18.833 44.217,18.833 44.404 C 18.833 44.585,19.150 44.654,20.171 44.696 C 21.688 44.757,21.833 44.732,21.833 44.403 C 21.833 44.273,21.908 44.167,22.000 44.167 C 22.092 44.167,22.167 43.912,22.167 43.601 C 22.167 43.252,22.262 42.999,22.417 42.940 C 22.554 42.887,22.667 42.654,22.667 42.422 C 22.667 42.190,22.727 42.000,22.801 42.000 C 22.949 42.000,23.500 40.838,23.500 40.527 C 23.500 40.421,23.580 40.333,23.678 40.333 C 23.776 40.333,24.103 40.071,24.406 39.750 C 24.863 39.265,25.073 39.167,25.650 39.167 C 26.113 39.167,26.376 39.083,26.440 38.917 C 26.515 38.721,26.852 38.667,27.997 38.667 C 29.093 38.667,29.511 38.729,29.667 38.917 C 29.794 39.070,30.160 39.167,30.616 39.167 C 31.023 39.167,31.451 39.260,31.566 39.375 C 31.681 39.490,32.012 39.771,32.302 40.000 C 32.593 40.229,32.831 40.510,32.832 40.625 C 32.833 40.740,32.946 40.833,33.083 40.833 C 33.263 40.833,33.333 41.017,33.333 41.490 C 33.333 41.851,33.408 42.193,33.500 42.250 C 34.124 42.636,33.592 46.333,32.913 46.333 C 32.582 46.333,31.667 46.849,31.667 47.036 C 31.667 47.108,31.447 47.167,31.179 47.167 C 30.910 47.167,30.578 47.279,30.440 47.417 C 30.303 47.554,30.110 47.667,30.012 47.667 C 29.914 47.667,29.833 47.742,29.833 47.833 C 29.833 47.925,29.493 48.000,29.078 48.000 C 28.561 48.000,28.293 48.079,28.227 48.250 C 28.160 48.425,27.887 48.500,27.316 48.500 C 26.867 48.500,26.500 48.575,26.500 48.667 C 26.500 48.758,26.159 48.833,25.741 48.833 C 25.307 48.833,24.719 48.973,24.366 49.161 C 24.027 49.342,23.465 49.533,23.116 49.587 C 22.768 49.641,22.441 49.793,22.390 49.926 C 22.331 50.079,22.061 50.167,21.649 50.167 C 21.292 50.167,21.000 50.241,21.000 50.331 C 21.000 50.422,20.700 50.544,20.333 50.603 C 19.967 50.661,19.667 50.775,19.667 50.855 C 19.667 50.935,19.526 51.000,19.354 51.000 C 19.182 51.000,18.947 51.112,18.833 51.250 C 18.719 51.387,18.485 51.500,18.313 51.500 C 18.141 51.500,18.000 51.570,18.000 51.655 C 18.000 51.740,17.831 51.834,17.625 51.863 C 17.384 51.898,17.231 52.051,17.197 52.292 C 17.158 52.563,17.032 52.667,16.738 52.667 C 16.489 52.667,16.333 52.763,16.333 52.917 C 16.333 53.054,16.221 53.167,16.083 53.167 C 15.946 53.167,15.833 53.242,15.833 53.333 C 15.833 53.425,15.740 53.502,15.625 53.506 C 15.298 53.514,14.667 54.108,14.667 54.407 C 14.667 54.556,14.554 54.720,14.417 54.773 C 14.279 54.826,14.167 54.973,14.167 55.101 C 14.167 55.229,14.092 55.333,14.000 55.333 C 13.908 55.333,13.833 55.486,13.833 55.672 C 13.833 55.858,13.721 56.054,13.583 56.106 C 13.446 56.159,13.333 56.340,13.333 56.508 C 13.333 56.676,13.258 56.860,13.167 56.917 C 13.075 56.973,13.000 57.203,13.000 57.427 C 13.000 57.677,12.904 57.833,12.750 57.833 C 12.612 57.833,12.500 57.975,12.500 58.148 C 12.500 58.320,12.388 58.677,12.251 58.939 C 12.114 59.202,12.002 59.623,12.001 59.875 C 12.000 60.127,11.925 60.333,11.833 60.333 C 11.737 60.333,11.667 60.856,11.667 61.569 C 11.667 62.410,11.600 62.828,11.458 62.875 C 11.113 62.990,11.065 67.737,11.404 68.254 C 11.564 68.498,11.667 69.020,11.667 69.588 C 11.667 70.512,12.071 72.088,12.353 72.262 C 12.434 72.312,12.500 72.602,12.500 72.906 C 12.500 73.210,12.612 73.553,12.750 73.667 C 12.887 73.781,13.000 73.963,13.000 74.071 C 13.000 74.436,13.415 75.164,13.625 75.165 C 13.740 75.166,13.833 75.322,13.833 75.512 C 13.833 75.881,14.194 76.333,14.488 76.333 C 14.586 76.333,14.667 76.446,14.667 76.583 C 14.667 76.721,14.742 76.833,14.833 76.833 C 14.925 76.833,15.000 76.958,15.000 77.111 C 15.000 77.390,15.245 77.710,15.976 78.387 C 16.192 78.586,16.510 78.881,16.684 79.042 C 16.858 79.202,17.150 79.333,17.333 79.333 C 17.519 79.333,17.667 79.444,17.667 79.583 C 17.667 79.739,17.824 79.833,18.083 79.833 C 18.313 79.833,18.500 79.908,18.500 80.000 C 18.500 80.092,18.754 80.167,19.066 80.167 C 19.414 80.167,19.668 80.262,19.727 80.417 C 19.871 80.792,27.583 80.792,27.727 80.417 C 27.787 80.260,28.042 80.167,28.411 80.167 C 28.735 80.167,29.000 80.092,29.000 80.000 C 29.000 79.908,29.152 79.833,29.339 79.833 C 29.525 79.833,29.720 79.721,29.773 79.583 C 29.826 79.446,30.048 79.333,30.268 79.333 C 30.487 79.333,30.667 79.263,30.667 79.178 C 30.667 79.092,30.835 78.971,31.042 78.907 C 31.248 78.844,31.847 78.351,32.373 77.813 C 32.899 77.274,33.405 76.833,33.498 76.833 C 33.591 76.833,33.667 76.721,33.667 76.583 C 33.667 76.446,33.752 76.333,33.857 76.333 C 34.113 76.333,34.488 75.819,34.495 75.458 C 34.508 74.744,35.000 75.181,35.000 75.907 C 35.000 76.314,35.075 76.693,35.167 76.750 C 35.258 76.807,35.333 77.172,35.333 77.561 C 35.333 77.951,35.443 78.415,35.578 78.593 C 35.713 78.771,35.825 79.123,35.828 79.375 L 35.833 79.833 40.820 79.833 C 46.278 79.833,46.333 79.827,46.333 79.196 C 46.333 78.662,45.842 77.333,45.644 77.333 C 45.565 77.333,45.500 77.033,45.500 76.667 C 45.500 76.300,45.425 76.000,45.333 76.000 C 45.242 76.000,45.167 75.666,45.167 75.258 C 45.167 74.795,45.079 74.467,44.932 74.383 C 44.653 74.225,44.536 73.101,44.369 68.966 C 44.289 66.970,44.183 65.949,44.042 65.808 C 43.715 65.482,43.750 59.198,44.082 58.561 C 44.447 57.861,44.457 43.418,44.093 42.898 C 43.925 42.658,43.830 41.905,43.778 40.402 C 43.692 37.933,43.487 36.420,43.199 36.133 C 43.090 36.023,43.000 35.723,43.000 35.467 C 43.000 35.210,42.925 35.000,42.833 35.000 C 42.742 35.000,42.667 34.840,42.667 34.645 C 42.667 34.208,42.140 33.335,41.677 33.005 C 41.488 32.870,41.333 32.589,41.333 32.380 C 41.333 32.153,41.232 32.000,41.083 32.000 C 40.946 32.000,40.832 31.869,40.830 31.708 C 40.827 31.390,40.148 30.667,39.852 30.667 C 39.750 30.667,39.667 30.592,39.667 30.500 C 39.667 30.408,39.554 30.333,39.417 30.333 C 39.279 30.333,39.167 30.221,39.167 30.083 C 39.167 29.928,39.009 29.833,38.750 29.833 C 38.521 29.833,38.333 29.766,38.333 29.685 C 38.333 29.603,38.155 29.491,37.937 29.437 C 37.718 29.382,37.503 29.196,37.458 29.024 C 37.405 28.823,37.162 28.672,36.772 28.598 C 36.439 28.536,36.167 28.413,36.167 28.326 C 36.167 28.238,35.807 28.167,35.367 28.167 C 34.927 28.167,34.477 28.077,34.367 27.967 C 33.907 27.507,25.350 27.068,25.089 27.491 M71.833 27.493 C 71.696 27.586,71.375 27.663,71.120 27.664 C 70.863 27.666,70.613 27.778,70.560 27.917 C 70.502 28.069,70.249 28.167,69.913 28.167 C 69.609 28.167,69.336 28.223,69.306 28.292 C 69.275 28.360,68.978 28.555,68.645 28.724 C 68.312 28.893,67.943 29.212,67.825 29.432 C 67.695 29.676,67.461 29.833,67.230 29.833 C 67.021 29.833,66.790 29.927,66.717 30.042 C 66.643 30.157,66.383 30.354,66.138 30.480 C 65.893 30.606,65.454 31.042,65.161 31.449 C 64.869 31.857,64.450 32.383,64.231 32.619 C 64.012 32.855,63.833 33.188,63.833 33.358 C 63.833 33.528,63.721 33.667,63.583 33.667 C 63.446 33.667,63.333 33.779,63.333 33.917 C 63.333 34.054,63.258 34.167,63.167 34.167 C 63.063 34.167,63.000 33.173,63.000 31.520 C 63.000 28.168,63.515 28.485,58.146 28.539 L 53.750 28.583 53.708 54.211 L 53.666 79.838 58.708 79.794 L 63.750 79.750 63.793 65.674 C 63.820 56.624,63.894 51.539,64.001 51.432 C 64.095 51.338,64.167 50.237,64.167 48.871 C 64.167 46.965,64.218 46.425,64.417 46.226 C 64.577 46.065,64.667 45.653,64.667 45.071 C 64.667 44.574,64.742 44.167,64.833 44.167 C 64.925 44.167,65.000 43.988,65.000 43.770 C 65.000 43.552,65.112 43.281,65.250 43.167 C 65.387 43.053,65.500 42.781,65.500 42.563 C 65.500 42.345,65.575 42.167,65.667 42.167 C 65.758 42.167,65.833 41.979,65.833 41.750 C 65.833 41.491,65.928 41.333,66.083 41.333 C 66.221 41.333,66.333 41.221,66.333 41.083 C 66.333 40.946,66.408 40.833,66.500 40.833 C 66.592 40.833,66.667 40.721,66.667 40.583 C 66.667 40.432,66.821 40.333,67.057 40.333 C 67.311 40.333,67.513 40.188,67.636 39.917 C 67.741 39.688,67.940 39.500,68.080 39.500 C 68.219 39.500,68.333 39.425,68.333 39.333 C 68.333 39.242,68.598 39.167,68.922 39.167 C 69.291 39.167,69.546 39.074,69.606 38.917 C 69.678 38.731,69.972 38.667,70.750 38.667 C 71.528 38.667,71.822 38.731,71.894 38.917 C 71.953 39.071,72.207 39.167,72.559 39.167 C 73.046 39.167,73.169 39.251,73.405 39.750 C 73.558 40.071,73.754 40.333,73.841 40.333 C 73.929 40.333,74.000 40.446,74.000 40.583 C 74.000 40.721,74.075 40.833,74.167 40.833 C 74.258 40.833,74.333 41.021,74.333 41.250 C 74.333 41.509,74.428 41.667,74.583 41.667 C 74.772 41.667,74.833 41.869,74.833 42.490 C 74.833 42.943,74.908 43.360,75.000 43.417 C 75.109 43.484,75.167 49.723,75.167 61.590 L 75.167 79.660 75.542 79.752 C 75.748 79.802,78.129 79.822,80.833 79.797 L 85.750 79.750 85.793 64.591 C 85.820 54.819,85.894 49.373,86.001 49.266 C 86.092 49.175,86.167 48.365,86.167 47.467 C 86.167 46.126,86.211 45.833,86.417 45.833 C 86.606 45.833,86.667 45.630,86.667 45.000 C 86.667 44.542,86.742 44.167,86.833 44.167 C 86.925 44.167,87.000 43.904,87.000 43.583 C 87.000 43.176,87.075 43.000,87.250 43.000 C 87.406 43.000,87.500 42.843,87.500 42.583 C 87.500 42.354,87.574 42.167,87.663 42.167 C 87.753 42.167,87.874 41.979,87.932 41.750 C 87.989 41.521,88.103 41.333,88.185 41.333 C 88.266 41.333,88.333 41.258,88.333 41.167 C 88.333 40.952,88.950 40.333,89.163 40.333 C 89.252 40.333,89.449 40.146,89.599 39.917 C 89.749 39.688,89.976 39.500,90.103 39.500 C 90.229 39.500,90.333 39.425,90.333 39.333 C 90.333 39.242,90.549 39.167,90.813 39.167 C 91.077 39.167,91.386 39.054,91.500 38.917 C 91.636 38.752,92.008 38.667,92.586 38.667 C 93.213 38.667,93.492 38.738,93.560 38.917 C 93.613 39.054,93.850 39.167,94.086 39.167 C 94.526 39.167,96.000 40.438,96.000 40.817 C 96.000 40.920,96.071 41.135,96.158 41.294 C 96.244 41.453,96.360 41.865,96.415 42.208 C 96.470 42.552,96.582 42.833,96.663 42.833 C 96.944 42.833,97.023 46.157,97.138 62.917 C 97.202 72.175,97.272 79.769,97.294 79.792 C 97.380 79.883,107.108 79.822,107.458 79.728 L 107.833 79.628 107.833 63.084 C 107.833 48.582,107.802 46.515,107.583 46.333 C 107.376 46.161,107.333 45.537,107.333 42.656 C 107.333 40.523,107.269 39.147,107.167 39.083 C 107.075 39.027,107.000 38.535,107.000 37.990 C 107.000 37.221,106.944 37.000,106.750 37.000 C 106.570 37.000,106.500 36.816,106.500 36.343 C 106.500 35.982,106.425 35.640,106.333 35.583 C 106.242 35.527,106.167 35.295,106.167 35.068 C 106.167 34.842,106.054 34.613,105.917 34.560 C 105.779 34.508,105.667 34.285,105.667 34.066 C 105.667 33.846,105.592 33.667,105.500 33.667 C 105.408 33.667,105.333 33.479,105.333 33.250 C 105.333 32.991,105.239 32.833,105.083 32.833 C 104.946 32.833,104.833 32.721,104.833 32.583 C 104.833 32.446,104.768 32.333,104.688 32.333 C 104.607 32.333,104.499 32.127,104.447 31.875 C 104.346 31.385,103.473 30.333,103.168 30.333 C 103.067 30.333,102.819 30.156,102.617 29.940 C 102.415 29.723,102.081 29.493,101.875 29.429 C 101.669 29.364,101.500 29.202,101.500 29.068 C 101.500 28.934,101.320 28.757,101.100 28.673 C 100.879 28.589,100.650 28.441,100.590 28.344 C 100.530 28.246,100.191 28.167,99.837 28.167 C 99.484 28.167,99.168 28.088,99.136 27.991 C 98.864 27.175,92.136 27.185,91.861 28.002 C 91.831 28.092,91.520 28.167,91.171 28.167 C 90.760 28.167,90.502 28.255,90.440 28.417 C 90.387 28.554,90.191 28.667,90.005 28.667 C 89.779 28.667,89.667 28.776,89.667 28.997 C 89.667 29.210,89.519 29.364,89.250 29.432 C 89.021 29.489,88.833 29.603,88.833 29.685 C 88.833 29.766,88.721 29.833,88.583 29.833 C 88.446 29.833,88.333 29.946,88.333 30.083 C 88.333 30.225,88.184 30.333,87.988 30.333 C 87.619 30.333,87.167 30.694,87.167 30.988 C 87.167 31.086,87.086 31.167,86.988 31.167 C 86.734 31.167,86.397 31.537,86.261 31.966 C 86.197 32.168,86.074 32.333,85.989 32.333 C 85.903 32.333,85.833 32.446,85.833 32.583 C 85.833 32.721,85.721 32.833,85.583 32.833 C 85.446 32.833,85.333 32.890,85.333 32.958 C 85.333 33.027,85.146 33.301,84.916 33.568 C 84.687 33.834,84.500 34.153,84.500 34.276 C 84.500 34.399,84.425 34.500,84.333 34.500 C 84.242 34.500,84.167 34.348,84.167 34.161 C 84.167 33.975,84.054 33.780,83.917 33.727 C 83.779 33.674,83.667 33.500,83.667 33.340 C 83.667 33.180,83.479 32.846,83.250 32.599 C 83.021 32.352,82.833 32.049,82.833 31.925 C 82.833 31.669,81.998 30.667,81.784 30.667 C 81.584 30.667,81.167 30.225,81.167 30.012 C 81.167 29.914,81.054 29.833,80.917 29.833 C 80.779 29.833,80.667 29.766,80.667 29.685 C 80.667 29.603,80.479 29.489,80.250 29.432 C 79.981 29.364,79.833 29.210,79.833 28.997 C 79.833 28.776,79.721 28.667,79.495 28.667 C 79.309 28.667,79.113 28.554,79.060 28.417 C 78.998 28.255,78.740 28.167,78.333 28.167 C 77.950 28.167,77.668 28.076,77.614 27.936 C 77.449 27.507,72.387 27.119,71.833 27.493 M128.922 27.491 C 128.863 27.588,128.516 27.667,128.152 27.667 C 127.717 27.667,127.457 27.753,127.394 27.917 C 127.325 28.096,127.045 28.167,126.409 28.167 C 125.920 28.167,125.477 28.236,125.425 28.321 C 125.372 28.405,125.116 28.521,124.854 28.579 C 124.593 28.636,124.219 28.867,124.024 29.092 C 123.829 29.316,123.556 29.500,123.418 29.500 C 123.280 29.500,123.167 29.575,123.167 29.667 C 123.167 29.758,122.979 29.833,122.750 29.833 C 122.491 29.833,122.333 29.928,122.333 30.083 C 122.333 30.221,122.254 30.333,122.157 30.333 C 121.846 30.333,120.500 31.710,120.500 32.027 C 120.500 32.196,120.425 32.333,120.333 32.333 C 120.242 32.333,120.167 32.446,120.167 32.583 C 120.167 32.721,120.073 32.836,119.958 32.840 C 119.646 32.849,118.833 34.111,118.833 34.586 C 118.833 34.814,118.766 35.000,118.685 35.000 C 118.603 35.000,118.489 35.188,118.432 35.417 C 118.374 35.646,118.253 35.833,118.163 35.833 C 118.074 35.833,118.000 35.979,118.000 36.157 C 118.000 36.335,117.925 36.527,117.833 36.583 C 117.742 36.640,117.667 36.944,117.667 37.260 C 117.667 37.659,117.590 37.833,117.417 37.833 C 117.264 37.833,117.167 37.989,117.167 38.231 C 117.167 38.450,117.055 38.843,116.918 39.106 C 116.781 39.369,116.668 39.865,116.668 40.208 C 116.667 40.552,116.592 40.833,116.500 40.833 C 116.404 40.833,116.333 41.361,116.333 42.083 C 116.333 43.291,116.347 43.333,116.732 43.333 C 116.952 43.333,117.174 43.446,117.227 43.583 C 117.300 43.775,117.615 43.833,118.568 43.833 C 119.253 43.833,119.860 43.908,119.917 44.000 C 119.973 44.092,120.615 44.167,121.343 44.167 C 122.377 44.167,122.667 44.219,122.667 44.404 C 122.667 44.586,122.988 44.654,124.033 44.696 C 125.523 44.755,126.000 44.523,126.000 43.739 C 126.000 43.538,126.112 43.281,126.250 43.167 C 126.388 43.053,126.500 42.785,126.500 42.573 C 126.500 42.360,126.575 42.140,126.667 42.083 C 126.758 42.027,126.833 41.797,126.833 41.573 C 126.833 41.323,126.929 41.167,127.083 41.167 C 127.239 41.167,127.333 41.009,127.333 40.750 C 127.333 40.443,127.422 40.333,127.671 40.333 C 127.877 40.333,128.070 40.172,128.167 39.917 C 128.264 39.662,128.456 39.500,128.663 39.500 C 128.848 39.500,129.000 39.425,129.000 39.333 C 129.000 39.242,129.265 39.167,129.589 39.167 C 129.958 39.167,130.213 39.074,130.273 38.917 C 130.408 38.565,133.107 38.569,133.574 38.922 C 133.751 39.057,134.182 39.167,134.530 39.167 C 134.889 39.167,135.314 39.293,135.511 39.458 C 136.322 40.137,136.667 40.495,136.667 40.659 C 136.667 40.755,136.742 40.833,136.833 40.833 C 136.925 40.833,137.000 40.965,137.001 41.125 C 137.002 41.285,137.114 41.631,137.251 41.894 C 137.423 42.223,137.500 42.881,137.500 44.011 C 137.500 45.396,137.545 45.676,137.792 45.820 C 138.041 45.965,138.017 45.991,137.625 45.995 C 137.373 45.998,137.167 46.075,137.167 46.167 C 137.167 46.258,136.960 46.333,136.707 46.333 C 136.447 46.333,136.051 46.515,135.797 46.750 C 135.550 46.979,135.162 47.167,134.936 47.167 C 134.709 47.167,134.411 47.279,134.274 47.417 C 134.136 47.554,133.943 47.667,133.845 47.667 C 133.747 47.667,133.667 47.742,133.667 47.833 C 133.667 47.925,133.327 48.000,132.911 48.000 C 132.394 48.000,132.126 48.079,132.060 48.250 C 131.993 48.425,131.720 48.500,131.149 48.500 C 130.700 48.500,130.333 48.575,130.333 48.667 C 130.333 48.758,129.977 48.834,129.542 48.834 C 129.032 48.835,128.572 48.954,128.250 49.167 C 127.975 49.349,127.585 49.498,127.383 49.499 C 126.936 49.500,126.167 49.834,126.167 50.027 C 126.167 50.104,125.867 50.167,125.500 50.167 C 125.133 50.167,124.833 50.241,124.833 50.331 C 124.833 50.422,124.533 50.544,124.167 50.603 C 123.800 50.661,123.500 50.775,123.500 50.855 C 123.500 50.935,123.348 51.000,123.161 51.000 C 122.975 51.000,122.780 51.112,122.727 51.250 C 122.674 51.387,122.452 51.500,122.232 51.500 C 122.013 51.500,121.833 51.570,121.833 51.655 C 121.833 51.740,121.665 51.834,121.458 51.863 C 121.217 51.898,121.064 52.051,121.030 52.292 C 120.992 52.563,120.865 52.667,120.572 52.667 C 120.323 52.667,120.167 52.763,120.167 52.917 C 120.167 53.054,120.086 53.167,119.988 53.167 C 119.890 53.167,119.711 53.260,119.590 53.375 C 119.469 53.490,119.174 53.725,118.935 53.898 C 118.696 54.072,118.500 54.318,118.500 54.445 C 118.500 54.573,118.388 54.720,118.250 54.773 C 118.112 54.826,118.000 55.048,118.000 55.268 C 118.000 55.487,117.925 55.667,117.833 55.667 C 117.742 55.667,117.667 55.779,117.667 55.917 C 117.667 56.054,117.554 56.167,117.417 56.167 C 117.261 56.167,117.167 56.324,117.167 56.583 C 117.167 56.813,117.106 57.000,117.032 57.000 C 116.849 57.000,116.333 58.197,116.333 58.622 C 116.333 58.810,116.221 59.008,116.083 59.060 C 115.913 59.126,115.833 59.393,115.833 59.902 C 115.833 60.312,115.758 60.693,115.667 60.750 C 115.575 60.807,115.500 61.379,115.500 62.022 C 115.500 62.838,115.425 63.266,115.250 63.440 C 115.056 63.634,115.000 64.131,115.000 65.658 C 115.000 67.204,115.054 67.670,115.250 67.833 C 115.436 67.988,115.500 68.399,115.500 69.437 C 115.500 70.257,115.569 70.833,115.667 70.833 C 115.758 70.833,115.833 71.098,115.833 71.422 C 115.833 71.791,115.926 72.046,116.083 72.106 C 116.238 72.166,116.333 72.419,116.333 72.768 C 116.333 73.079,116.408 73.333,116.500 73.333 C 116.592 73.333,116.667 73.523,116.667 73.755 C 116.667 73.987,116.779 74.220,116.917 74.273 C 117.054 74.326,117.167 74.548,117.167 74.768 C 117.167 75.011,117.264 75.167,117.417 75.167 C 117.554 75.167,117.669 75.298,117.672 75.458 C 117.679 75.819,118.054 76.333,118.310 76.333 C 118.415 76.333,118.500 76.446,118.500 76.583 C 118.500 76.721,118.575 76.833,118.667 76.833 C 118.758 76.833,118.833 76.940,118.833 77.071 C 118.833 77.202,118.931 77.409,119.051 77.530 C 119.171 77.651,119.319 77.883,119.381 78.045 C 119.442 78.208,119.625 78.390,119.788 78.451 C 119.950 78.511,120.236 78.734,120.422 78.947 C 120.608 79.159,120.892 79.333,121.052 79.333 C 121.213 79.333,121.387 79.446,121.440 79.583 C 121.492 79.721,121.715 79.833,121.934 79.833 C 122.154 79.833,122.333 79.908,122.333 80.000 C 122.333 80.092,122.588 80.167,122.899 80.167 C 123.248 80.167,123.501 80.262,123.560 80.417 C 123.705 80.793,131.500 80.793,131.500 80.417 C 131.500 80.236,131.685 80.167,132.167 80.167 C 132.533 80.167,132.833 80.092,132.833 80.000 C 132.833 79.908,133.021 79.833,133.250 79.833 C 133.509 79.833,133.667 79.739,133.667 79.583 C 133.667 79.428,133.824 79.333,134.083 79.333 C 134.313 79.333,134.500 79.260,134.500 79.170 C 134.500 79.080,134.688 78.959,134.917 78.902 C 135.146 78.844,135.333 78.742,135.333 78.675 C 135.333 78.608,135.521 78.468,135.750 78.364 C 135.979 78.259,136.167 78.100,136.167 78.009 C 136.167 77.789,137.110 76.833,137.328 76.833 C 137.422 76.833,137.500 76.750,137.500 76.649 C 137.500 76.548,137.688 76.317,137.917 76.137 C 138.146 75.957,138.333 75.673,138.333 75.506 C 138.333 75.339,138.446 75.159,138.583 75.106 C 138.780 75.031,138.833 75.152,138.833 75.672 C 138.833 76.036,138.908 76.333,139.000 76.333 C 139.092 76.333,139.167 76.775,139.167 77.325 C 139.167 78.008,139.240 78.358,139.403 78.450 C 139.534 78.523,139.665 78.846,139.695 79.167 L 139.750 79.750 144.583 79.797 C 150.398 79.853,150.167 79.890,150.167 78.913 C 150.167 78.503,150.092 78.167,150.000 78.167 C 149.908 78.167,149.833 77.979,149.833 77.750 C 149.833 77.491,149.739 77.333,149.583 77.333 C 149.403 77.333,149.333 77.148,149.333 76.667 C 149.333 76.300,149.258 76.000,149.167 76.000 C 149.075 76.000,149.000 75.630,149.000 75.179 C 149.000 74.671,148.905 74.262,148.750 74.107 C 148.583 73.941,148.500 73.524,148.500 72.859 C 148.500 72.310,148.424 71.836,148.332 71.805 C 148.221 71.768,148.150 66.670,148.124 56.847 C 148.092 45.102,148.039 41.930,147.875 41.875 C 147.725 41.825,147.667 41.276,147.667 39.898 C 147.667 38.355,147.619 37.971,147.417 37.894 C 147.234 37.823,147.167 37.535,147.167 36.816 C 147.167 36.272,147.092 35.833,147.000 35.833 C 146.908 35.833,146.833 35.651,146.833 35.429 C 146.833 35.206,146.721 34.911,146.583 34.774 C 146.446 34.636,146.333 34.358,146.333 34.156 C 146.333 33.954,146.146 33.614,145.917 33.402 C 145.688 33.190,145.500 32.900,145.500 32.758 C 145.500 32.616,145.425 32.500,145.333 32.500 C 145.242 32.500,145.167 32.396,145.167 32.268 C 145.167 32.140,145.054 31.992,144.917 31.940 C 144.779 31.887,144.667 31.760,144.667 31.658 C 144.667 31.349,143.615 30.333,143.297 30.333 C 143.133 30.333,143.000 30.221,143.000 30.083 C 143.000 29.928,142.843 29.833,142.583 29.833 C 142.354 29.833,142.167 29.766,142.167 29.685 C 142.167 29.603,141.988 29.491,141.770 29.437 C 141.552 29.382,141.336 29.196,141.291 29.024 C 141.239 28.823,140.995 28.672,140.605 28.598 C 140.272 28.536,140.000 28.413,140.000 28.326 C 140.000 28.238,139.631 28.167,139.181 28.167 C 138.730 28.167,138.334 28.085,138.301 27.986 C 138.150 27.535,129.188 27.061,128.922 27.491 M208.588 27.492 C 208.529 27.588,208.182 27.667,207.818 27.667 C 207.384 27.667,207.123 27.753,207.060 27.917 C 206.993 28.092,206.720 28.167,206.149 28.167 C 205.700 28.167,205.333 28.238,205.333 28.326 C 205.333 28.413,205.061 28.536,204.728 28.598 C 204.352 28.669,204.094 28.824,204.046 29.008 C 204.003 29.172,203.788 29.350,203.568 29.406 C 203.347 29.461,203.167 29.580,203.167 29.670 C 203.167 29.760,202.979 29.833,202.750 29.833 C 202.491 29.833,202.333 29.928,202.333 30.083 C 202.333 30.239,202.176 30.333,201.917 30.333 C 201.688 30.333,201.500 30.408,201.500 30.500 C 201.500 30.592,201.397 30.667,201.271 30.667 C 200.934 30.667,199.833 31.728,199.833 32.054 C 199.833 32.207,199.721 32.333,199.583 32.333 C 199.446 32.333,199.333 32.414,199.333 32.512 C 199.333 32.743,198.909 33.167,198.679 33.167 C 198.580 33.167,198.500 33.279,198.500 33.417 C 198.500 33.554,198.425 33.667,198.333 33.667 C 198.242 33.667,198.167 33.779,198.167 33.917 C 198.167 34.054,198.054 34.167,197.917 34.167 C 197.779 34.167,197.664 34.298,197.661 34.458 C 197.655 34.790,197.288 35.331,197.065 35.337 C 196.886 35.342,196.333 36.415,196.333 36.757 C 196.333 36.891,196.258 37.000,196.167 37.000 C 196.075 37.000,196.000 37.112,196.000 37.250 C 196.000 37.387,195.926 37.500,195.837 37.500 C 195.747 37.500,195.626 37.688,195.568 37.917 C 195.511 38.146,195.397 38.333,195.315 38.333 C 195.234 38.333,195.167 38.512,195.167 38.730 C 195.167 38.948,195.054 39.219,194.917 39.333 C 194.779 39.447,194.667 39.757,194.667 40.020 C 194.667 40.284,194.592 40.500,194.500 40.500 C 194.408 40.500,194.333 40.716,194.333 40.980 C 194.333 41.243,194.221 41.553,194.083 41.667 C 193.946 41.781,193.833 42.127,193.833 42.437 C 193.833 42.747,193.758 43.000,193.667 43.000 C 193.575 43.000,193.500 43.375,193.500 43.833 C 193.500 44.463,193.439 44.667,193.250 44.667 C 193.058 44.667,193.000 44.880,193.000 45.583 C 193.000 46.087,192.925 46.500,192.833 46.500 C 192.733 46.500,192.667 47.167,192.667 48.167 C 192.667 49.537,192.622 49.833,192.417 49.833 C 192.201 49.833,192.167 50.406,192.167 53.988 C 192.167 57.459,192.208 58.184,192.417 58.393 C 192.606 58.582,192.667 59.052,192.667 60.321 C 192.667 61.329,192.733 62.000,192.833 62.000 C 192.926 62.000,193.000 62.446,193.000 63.005 C 193.000 63.745,193.066 64.036,193.250 64.106 C 193.425 64.173,193.500 64.446,193.500 65.008 C 193.500 65.451,193.575 65.860,193.667 65.917 C 193.758 65.973,193.833 66.240,193.833 66.510 C 193.833 66.834,193.918 67.000,194.083 67.000 C 194.263 67.000,194.333 67.184,194.333 67.657 C 194.333 68.018,194.408 68.360,194.500 68.417 C 194.592 68.473,194.667 68.705,194.667 68.932 C 194.667 69.158,194.779 69.387,194.917 69.440 C 195.054 69.492,195.167 69.704,195.167 69.909 C 195.167 70.360,195.630 71.333,195.846 71.333 C 195.930 71.333,196.002 71.465,196.005 71.625 C 196.012 71.985,196.387 72.500,196.643 72.500 C 196.748 72.500,196.833 72.688,196.833 72.917 C 196.833 73.146,196.907 73.333,196.997 73.333 C 197.087 73.333,197.207 73.521,197.265 73.750 C 197.322 73.979,197.436 74.167,197.518 74.167 C 197.600 74.167,197.667 74.279,197.667 74.417 C 197.667 74.554,197.779 74.667,197.917 74.667 C 198.054 74.667,198.167 74.747,198.167 74.845 C 198.167 75.011,198.266 75.149,198.784 75.703 C 199.148 76.091,199.483 76.333,199.660 76.333 C 199.755 76.333,199.833 76.446,199.833 76.583 C 199.833 76.721,199.908 76.833,199.999 76.833 C 200.199 76.833,200.917 77.416,201.489 78.042 C 201.719 78.294,202.003 78.500,202.120 78.500 C 202.238 78.500,202.333 78.575,202.333 78.667 C 202.333 78.758,202.486 78.833,202.672 78.833 C 202.858 78.833,203.054 78.946,203.106 79.083 C 203.169 79.246,203.428 79.333,203.851 79.333 C 204.317 79.333,204.500 79.404,204.500 79.583 C 204.500 79.758,204.676 79.833,205.083 79.833 C 205.404 79.833,205.667 79.908,205.667 80.000 C 205.667 80.092,205.932 80.167,206.255 80.167 C 206.625 80.167,206.880 80.260,206.940 80.417 C 207.084 80.793,215.833 80.793,215.833 80.417 C 215.833 80.236,216.019 80.167,216.500 80.167 C 216.867 80.167,217.167 80.092,217.167 80.000 C 217.167 79.908,217.421 79.833,217.732 79.833 C 218.081 79.833,218.334 79.738,218.394 79.583 C 218.446 79.446,218.598 79.333,218.731 79.333 C 219.013 79.333,220.058 78.808,220.139 78.625 C 220.169 78.556,220.269 78.500,220.360 78.500 C 220.551 78.500,221.833 77.165,221.833 76.966 C 221.833 76.893,221.953 76.833,222.100 76.833 C 222.401 76.833,223.500 75.799,223.500 75.516 C 223.500 75.415,223.875 74.964,224.333 74.516 C 224.792 74.067,225.167 73.649,225.167 73.588 C 225.167 73.526,225.279 73.364,225.417 73.226 C 225.554 73.089,225.667 72.794,225.667 72.571 C 225.667 72.349,225.742 72.167,225.833 72.167 C 225.925 72.167,226.000 72.054,226.000 71.917 C 226.000 71.779,226.112 71.667,226.250 71.667 C 226.387 71.667,226.500 71.554,226.500 71.417 C 226.500 71.279,226.575 71.167,226.667 71.167 C 226.758 71.167,226.833 70.904,226.833 70.583 C 226.833 70.176,226.909 70.000,227.083 70.000 C 227.236 70.000,227.333 69.845,227.333 69.601 C 227.333 69.382,227.446 69.159,227.583 69.106 C 227.721 69.054,227.833 68.858,227.833 68.672 C 227.833 68.486,227.908 68.333,228.000 68.333 C 228.092 68.333,228.167 68.033,228.167 67.667 C 228.167 67.185,228.236 67.000,228.417 67.000 C 228.572 67.000,228.667 66.843,228.667 66.583 C 228.667 66.354,228.742 66.167,228.833 66.167 C 228.925 66.167,229.000 65.800,229.000 65.351 C 229.000 64.780,229.075 64.507,229.250 64.440 C 229.414 64.377,229.500 64.116,229.500 63.682 C 229.500 63.318,229.575 62.973,229.667 62.917 C 229.758 62.860,229.833 62.302,229.833 61.677 C 229.833 60.870,229.906 60.481,230.083 60.333 C 230.453 60.026,230.458 48.396,230.089 47.907 C 229.936 47.705,229.842 47.192,229.839 46.542 C 229.836 45.962,229.759 45.500,229.667 45.500 C 229.575 45.500,229.500 45.130,229.500 44.679 C 229.500 44.171,229.405 43.762,229.250 43.607 C 229.112 43.470,229.000 43.089,229.000 42.762 C 229.000 42.435,228.935 42.167,228.855 42.167 C 228.775 42.167,228.661 41.867,228.603 41.500 C 228.544 41.133,228.422 40.833,228.331 40.833 C 228.241 40.833,228.167 40.646,228.167 40.417 C 228.167 40.188,228.100 40.000,228.019 40.000 C 227.937 40.000,227.821 39.737,227.761 39.417 C 227.701 39.096,227.580 38.833,227.492 38.833 C 227.405 38.833,227.333 38.681,227.333 38.495 C 227.333 38.309,227.221 38.113,227.083 38.060 C 226.946 38.008,226.833 37.860,226.833 37.732 C 226.833 37.604,226.758 37.500,226.667 37.500 C 226.575 37.500,226.500 37.318,226.500 37.095 C 226.500 36.873,226.387 36.578,226.250 36.440 C 226.112 36.303,226.000 36.110,226.000 36.012 C 226.000 35.914,225.925 35.833,225.833 35.833 C 225.742 35.833,225.667 35.721,225.667 35.583 C 225.667 35.446,225.554 35.333,225.417 35.333 C 225.276 35.333,225.167 35.184,225.167 34.993 C 225.167 34.549,224.622 33.904,223.274 32.750 C 222.943 32.467,222.685 32.087,222.678 31.875 C 222.672 31.669,222.610 31.500,222.542 31.500 C 222.473 31.500,222.122 31.237,221.761 30.917 C 221.401 30.596,220.970 30.333,220.803 30.333 C 220.636 30.333,220.500 30.221,220.500 30.083 C 220.500 29.928,220.343 29.833,220.083 29.833 C 219.854 29.833,219.667 29.758,219.667 29.667 C 219.667 29.575,219.527 29.500,219.357 29.500 C 219.186 29.500,218.906 29.313,218.734 29.083 C 218.562 28.854,218.303 28.667,218.159 28.667 C 218.015 28.667,217.751 28.557,217.574 28.422 C 217.396 28.287,216.938 28.175,216.556 28.172 C 216.174 28.169,215.833 28.082,215.798 27.979 C 215.646 27.522,208.853 27.064,208.588 27.492 M257.258 27.488 C 257.197 27.586,256.926 27.667,256.657 27.667 C 256.332 27.667,256.167 27.751,256.167 27.917 C 256.167 28.095,255.985 28.167,255.532 28.167 C 255.183 28.167,254.751 28.277,254.574 28.411 C 254.396 28.546,254.119 28.658,253.958 28.661 C 253.780 28.665,253.667 28.796,253.667 28.997 C 253.667 29.210,253.519 29.364,253.250 29.432 C 253.021 29.489,252.833 29.603,252.833 29.685 C 252.833 29.766,252.646 29.833,252.417 29.833 C 252.157 29.833,252.000 29.928,252.000 30.083 C 252.000 30.221,251.924 30.333,251.832 30.333 C 251.533 30.333,250.167 31.732,250.167 32.038 C 250.167 32.200,250.092 32.333,250.000 32.333 C 249.908 32.333,249.833 32.446,249.833 32.583 C 249.833 32.721,249.753 32.833,249.655 32.833 C 249.432 32.833,249.000 33.254,249.000 33.470 C 249.000 33.559,248.887 33.674,248.750 33.727 C 248.612 33.780,248.500 33.975,248.500 34.161 C 248.500 34.348,248.425 34.500,248.333 34.500 C 248.229 34.500,248.167 33.476,248.167 31.762 C 248.167 29.495,248.122 28.979,247.905 28.762 C 247.631 28.488,240.089 28.357,238.854 28.604 L 238.332 28.709 238.374 54.229 L 238.417 79.750 243.667 79.750 L 248.917 79.750 249.030 64.417 C 249.152 47.993,249.213 45.974,249.595 45.657 C 249.742 45.535,249.833 45.149,249.833 44.646 C 249.833 44.199,249.908 43.833,250.000 43.833 C 250.092 43.833,250.167 43.691,250.167 43.518 C 250.167 43.344,250.279 43.159,250.417 43.106 C 250.554 43.054,250.667 42.895,250.667 42.753 C 250.667 42.429,251.017 41.792,251.292 41.617 C 251.406 41.543,251.500 41.372,251.500 41.236 C 251.500 41.101,251.631 40.941,251.792 40.882 C 251.952 40.823,252.313 40.544,252.595 40.262 C 253.488 39.367,253.822 39.167,254.424 39.167 C 254.792 39.167,255.046 39.073,255.106 38.917 C 255.179 38.728,255.484 38.667,256.351 38.667 C 257.261 38.667,257.500 38.719,257.500 38.917 C 257.500 39.086,257.669 39.167,258.022 39.167 C 258.403 39.167,258.693 39.325,259.094 39.750 C 259.397 40.071,259.724 40.333,259.822 40.333 C 259.920 40.333,260.000 40.446,260.000 40.583 C 260.000 40.721,260.075 40.833,260.167 40.833 C 260.258 40.833,260.333 41.021,260.333 41.250 C 260.333 41.509,260.428 41.667,260.583 41.667 C 260.758 41.667,260.833 41.843,260.833 42.250 C 260.833 42.571,260.899 42.833,260.979 42.833 C 261.059 42.833,261.162 43.224,261.208 43.701 C 261.254 44.179,261.376 44.597,261.479 44.632 C 261.617 44.678,261.667 49.355,261.667 62.163 C 261.667 77.938,261.692 79.641,261.930 79.732 C 262.075 79.788,264.438 79.833,267.180 79.833 L 272.167 79.833 272.167 60.167 C 272.167 47.167,272.110 40.500,272.000 40.500 C 271.904 40.500,271.833 39.970,271.833 39.245 C 271.833 38.283,271.775 37.967,271.583 37.894 C 271.408 37.826,271.333 37.553,271.333 36.982 C 271.333 36.534,271.258 36.167,271.167 36.167 C 271.075 36.167,271.000 35.939,271.000 35.661 C 271.000 35.366,270.896 35.116,270.750 35.060 C 270.612 35.008,270.500 34.796,270.500 34.591 C 270.500 34.140,270.036 33.167,269.821 33.167 C 269.736 33.167,269.667 33.017,269.667 32.833 C 269.667 32.650,269.600 32.500,269.518 32.500 C 269.436 32.500,269.322 32.313,269.265 32.083 C 269.207 31.854,269.087 31.667,268.997 31.667 C 268.907 31.667,268.833 31.554,268.833 31.417 C 268.833 31.279,268.721 31.167,268.583 31.167 C 268.446 31.167,268.333 31.086,268.333 30.988 C 268.333 30.706,267.570 30.098,266.958 29.892 C 266.798 29.839,266.667 29.736,266.667 29.665 C 266.667 29.594,266.479 29.489,266.250 29.432 C 265.981 29.364,265.833 29.210,265.833 28.997 C 265.833 28.789,265.721 28.667,265.532 28.667 C 265.366 28.667,265.085 28.557,264.907 28.422 C 264.729 28.287,264.310 28.175,263.976 28.172 C 263.617 28.169,263.333 28.072,263.281 27.936 C 263.114 27.501,257.507 27.084,257.258 27.488 M294.167 27.496 C 294.029 27.587,293.757 27.663,293.562 27.664 C 293.367 27.666,293.114 27.779,293.000 27.917 C 292.873 28.069,292.508 28.167,292.063 28.167 C 291.662 28.167,291.333 28.240,291.333 28.329 C 291.333 28.418,291.090 28.552,290.792 28.628 C 290.483 28.707,290.179 28.924,290.085 29.133 C 289.994 29.336,289.770 29.500,289.583 29.500 C 289.398 29.500,289.105 29.688,288.933 29.917 C 288.761 30.146,288.480 30.333,288.310 30.333 C 288.139 30.333,288.000 30.408,288.000 30.500 C 288.000 30.592,287.931 30.667,287.846 30.667 C 287.616 30.667,286.667 31.661,286.667 31.902 C 286.667 32.018,286.292 32.497,285.833 32.968 C 285.375 33.438,285.000 33.901,285.000 33.995 C 285.000 34.089,284.930 34.167,284.845 34.167 C 284.759 34.167,284.638 34.329,284.575 34.528 C 284.512 34.726,284.282 35.067,284.063 35.285 C 283.845 35.503,283.667 35.791,283.667 35.924 C 283.667 36.058,283.592 36.167,283.500 36.167 C 283.408 36.167,283.333 36.350,283.333 36.573 C 283.333 36.797,283.263 37.024,283.177 37.077 C 282.968 37.206,282.500 38.158,282.500 38.454 C 282.500 38.584,282.387 38.803,282.250 38.940 C 282.112 39.078,282.000 39.485,282.000 39.845 C 282.000 40.316,281.930 40.500,281.750 40.500 C 281.596 40.500,281.500 40.656,281.500 40.907 C 281.500 41.131,281.425 41.360,281.333 41.417 C 281.242 41.473,281.167 41.821,281.167 42.188 C 281.167 42.561,281.056 42.968,280.917 43.107 C 280.756 43.268,280.667 43.680,280.667 44.262 C 280.667 44.760,280.592 45.167,280.500 45.167 C 280.402 45.167,280.333 45.744,280.333 46.566 C 280.333 47.655,280.278 47.986,280.083 48.060 C 279.867 48.143,279.833 49.004,279.833 54.400 C 279.833 59.727,279.870 60.680,280.083 60.893 C 280.262 61.071,280.333 61.505,280.333 62.405 C 280.333 63.135,280.404 63.667,280.500 63.667 C 280.593 63.667,280.667 64.113,280.667 64.672 C 280.667 65.412,280.733 65.702,280.917 65.773 C 281.079 65.835,281.167 66.094,281.167 66.508 C 281.167 66.859,281.242 67.193,281.333 67.250 C 281.425 67.307,281.500 67.559,281.500 67.811 C 281.500 68.063,281.610 68.415,281.745 68.593 C 281.879 68.771,281.992 69.076,281.995 69.271 C 281.998 69.466,282.112 69.719,282.250 69.833 C 282.387 69.947,282.500 70.219,282.500 70.437 C 282.500 70.655,282.575 70.833,282.667 70.833 C 282.758 70.833,282.833 71.021,282.833 71.250 C 282.833 71.509,282.928 71.667,283.083 71.667 C 283.239 71.667,283.333 71.824,283.333 72.083 C 283.333 72.313,283.408 72.500,283.500 72.500 C 283.592 72.500,283.667 72.679,283.667 72.899 C 283.667 73.118,283.779 73.341,283.917 73.394 C 284.054 73.446,284.167 73.642,284.167 73.828 C 284.167 74.014,284.242 74.167,284.333 74.167 C 284.425 74.167,284.500 74.279,284.500 74.417 C 284.500 74.554,284.612 74.667,284.750 74.667 C 284.887 74.667,285.000 74.779,285.000 74.917 C 285.000 75.054,285.075 75.167,285.167 75.167 C 285.258 75.167,285.333 75.262,285.333 75.379 C 285.333 75.654,286.721 77.167,286.973 77.167 C 287.080 77.167,287.167 77.242,287.167 77.334 C 287.167 77.615,288.522 78.833,288.836 78.833 C 288.998 78.833,289.174 78.946,289.227 79.083 C 289.287 79.240,289.542 79.333,289.911 79.333 C 290.323 79.333,290.500 79.408,290.500 79.583 C 290.500 79.737,290.656 79.833,290.907 79.833 C 291.131 79.833,291.360 79.908,291.417 80.000 C 291.473 80.092,291.769 80.167,292.073 80.167 C 292.377 80.167,292.719 80.279,292.833 80.417 C 293.144 80.791,302.129 80.791,302.273 80.417 C 302.332 80.264,302.584 80.167,302.925 80.167 C 303.230 80.167,303.527 80.092,303.583 80.000 C 303.640 79.908,303.909 79.833,304.182 79.833 C 304.468 79.833,304.718 79.728,304.773 79.583 C 304.826 79.446,305.048 79.333,305.268 79.333 C 305.487 79.333,305.667 79.263,305.667 79.178 C 305.667 79.092,305.835 78.969,306.042 78.904 C 306.248 78.839,306.858 78.346,307.397 77.809 C 307.936 77.273,308.442 76.833,308.522 76.833 C 308.601 76.833,308.667 76.721,308.667 76.583 C 308.667 76.446,308.752 76.333,308.857 76.333 C 309.113 76.333,309.488 75.819,309.495 75.458 C 309.498 75.298,309.612 75.167,309.750 75.167 C 309.887 75.167,310.000 75.054,310.000 74.917 C 310.000 74.779,310.075 74.667,310.167 74.667 C 310.258 74.667,310.333 74.562,310.333 74.434 C 310.333 74.307,310.446 74.159,310.583 74.106 C 310.721 74.054,310.833 73.858,310.833 73.672 C 310.833 73.486,310.908 73.333,311.000 73.333 C 311.092 73.333,311.167 73.146,311.167 72.917 C 311.167 72.657,311.261 72.500,311.417 72.500 C 311.572 72.500,311.667 72.343,311.667 72.083 C 311.667 71.854,311.742 71.667,311.833 71.667 C 311.925 71.667,312.000 71.479,312.000 71.250 C 312.000 70.991,312.094 70.833,312.250 70.833 C 312.423 70.833,312.500 70.659,312.500 70.268 C 312.500 69.919,312.596 69.666,312.750 69.606 C 312.887 69.554,313.000 69.325,313.000 69.098 C 313.000 68.872,313.075 68.640,313.167 68.583 C 313.258 68.527,313.333 68.155,313.333 67.758 C 313.333 67.270,313.414 67.005,313.583 66.940 C 313.767 66.869,313.833 66.579,313.833 65.845 C 313.833 64.404,313.536 64.167,311.736 64.167 C 310.675 64.167,310.348 64.111,310.273 63.917 C 310.198 63.721,309.865 63.667,308.755 63.667 C 307.918 63.667,307.333 63.598,307.333 63.500 C 307.333 63.408,307.080 63.333,306.770 63.333 C 306.461 63.333,306.114 63.221,306.000 63.083 C 305.611 62.614,303.667 62.739,303.667 63.232 C 303.667 63.452,303.554 63.674,303.417 63.727 C 303.245 63.793,303.167 64.061,303.167 64.578 C 303.167 64.993,303.092 65.333,303.000 65.333 C 302.908 65.333,302.833 65.523,302.833 65.755 C 302.833 65.987,302.721 66.220,302.583 66.273 C 302.446 66.326,302.333 66.485,302.333 66.627 C 302.333 66.769,302.146 67.131,301.917 67.431 C 301.688 67.732,301.500 68.020,301.500 68.072 C 301.500 68.266,300.824 68.833,300.593 68.833 C 300.461 68.833,300.307 68.908,300.250 69.000 C 300.193 69.092,299.924 69.167,299.652 69.167 C 299.365 69.167,299.116 69.272,299.060 69.417 C 298.929 69.758,297.046 69.754,296.593 69.411 C 296.415 69.277,296.021 69.167,295.718 69.167 C 295.415 69.167,295.167 69.092,295.167 69.000 C 295.167 68.908,294.979 68.833,294.750 68.833 C 294.491 68.833,294.333 68.739,294.333 68.583 C 294.333 68.446,294.221 68.333,294.083 68.333 C 293.946 68.333,293.833 68.239,293.833 68.123 C 293.833 68.008,293.646 67.711,293.417 67.464 C 293.188 67.217,293.000 66.936,293.000 66.841 C 293.000 66.745,292.926 66.667,292.837 66.667 C 292.747 66.667,292.626 66.479,292.568 66.250 C 292.511 66.021,292.397 65.833,292.315 65.833 C 292.234 65.833,292.167 65.721,292.167 65.583 C 292.167 65.446,292.054 65.333,291.917 65.333 C 291.742 65.333,291.667 65.157,291.667 64.750 C 291.667 64.429,291.592 64.167,291.500 64.167 C 291.408 64.167,291.333 63.902,291.333 63.578 C 291.333 63.209,291.240 62.954,291.083 62.894 C 290.901 62.823,290.833 62.536,290.833 61.825 C 290.833 61.291,290.758 60.807,290.667 60.750 C 290.575 60.693,290.500 60.203,290.500 59.660 L 290.500 58.673 302.423 58.628 C 312.806 58.589,314.366 58.551,314.504 58.333 C 314.777 57.901,314.707 53.284,314.422 52.907 C 314.233 52.657,314.176 52.023,314.172 50.135 C 314.169 48.688,314.098 47.644,314.000 47.583 C 313.908 47.527,313.833 46.974,313.833 46.355 C 313.833 45.624,313.748 45.117,313.589 44.907 C 313.449 44.722,313.342 44.213,313.339 43.718 C 313.336 43.242,313.268 42.813,313.189 42.764 C 313.109 42.715,313.004 42.319,312.955 41.884 C 312.906 41.450,312.784 41.067,312.683 41.033 C 312.582 41.000,312.500 40.763,312.500 40.507 C 312.500 40.250,312.387 39.947,312.250 39.833 C 312.112 39.719,312.000 39.422,312.000 39.172 C 312.000 38.700,311.594 37.745,311.323 37.577 C 311.237 37.524,311.167 37.297,311.167 37.073 C 311.167 36.850,311.092 36.667,311.000 36.667 C 310.908 36.667,310.833 36.479,310.833 36.250 C 310.833 35.991,310.739 35.833,310.583 35.833 C 310.446 35.833,310.333 35.736,310.333 35.617 C 310.333 35.234,309.924 34.503,309.708 34.501 C 309.594 34.501,309.500 34.343,309.500 34.150 C 309.500 33.950,309.143 33.451,308.667 32.984 C 308.208 32.536,307.833 32.098,307.833 32.013 C 307.833 31.733,306.763 30.729,306.208 30.488 C 305.910 30.358,305.667 30.158,305.667 30.043 C 305.667 29.928,305.479 29.833,305.250 29.833 C 305.021 29.833,304.833 29.766,304.833 29.685 C 304.833 29.603,304.655 29.491,304.437 29.437 C 304.218 29.382,304.003 29.196,303.958 29.024 C 303.905 28.823,303.662 28.672,303.272 28.598 C 302.939 28.536,302.667 28.413,302.667 28.326 C 302.667 28.238,302.292 28.167,301.833 28.167 C 301.230 28.167,301.000 28.102,301.000 27.933 C 301.000 27.513,294.744 27.112,294.167 27.496 M155.708 28.672 L 155.333 28.823 155.333 34.828 L 155.333 40.833 163.583 40.833 C 170.806 40.833,171.833 40.864,171.833 41.083 C 171.833 41.221,171.721 41.333,171.583 41.333 C 171.446 41.333,171.333 41.390,171.333 41.458 C 171.333 41.527,171.146 41.801,170.916 42.068 C 170.687 42.334,170.500 42.620,170.500 42.704 C 170.500 42.787,170.256 43.095,169.958 43.388 C 169.371 43.964,169.046 44.418,168.892 44.875 C 168.839 45.035,168.728 45.167,168.647 45.167 C 168.566 45.167,168.500 45.245,168.500 45.341 C 168.500 45.436,168.313 45.717,168.083 45.964 C 167.854 46.211,167.667 46.508,167.667 46.623 C 167.667 46.739,167.570 46.833,167.451 46.833 C 167.332 46.833,167.098 47.165,166.931 47.569 C 166.765 47.974,166.374 48.551,166.064 48.852 C 165.754 49.153,165.500 49.497,165.500 49.616 C 165.500 49.736,165.430 49.833,165.345 49.833 C 165.259 49.833,165.139 49.992,165.077 50.187 C 165.015 50.381,164.746 50.769,164.478 51.049 C 164.211 51.329,163.948 51.732,163.894 51.946 C 163.841 52.159,163.735 52.333,163.660 52.333 C 163.584 52.333,163.473 52.489,163.413 52.679 C 163.352 52.870,163.052 53.284,162.745 53.600 C 162.438 53.916,162.140 54.323,162.082 54.504 C 162.025 54.685,161.908 54.833,161.822 54.833 C 161.737 54.833,161.667 54.987,161.667 55.174 C 161.667 55.361,161.479 55.717,161.250 55.964 C 161.021 56.211,160.833 56.510,160.833 56.629 C 160.833 56.747,160.721 56.887,160.583 56.940 C 160.446 56.992,160.333 57.140,160.333 57.268 C 160.333 57.396,160.258 57.500,160.167 57.500 C 160.075 57.500,160.000 57.650,160.000 57.833 C 160.000 58.017,159.925 58.167,159.833 58.167 C 159.741 58.167,159.536 58.467,159.377 58.833 C 159.218 59.200,159.036 59.500,158.973 59.500 C 158.824 59.500,158.333 60.482,158.333 60.781 C 158.333 60.907,158.221 61.054,158.083 61.106 C 157.946 61.159,157.833 61.307,157.833 61.434 C 157.833 61.562,157.758 61.667,157.667 61.667 C 157.575 61.667,157.500 61.747,157.500 61.845 C 157.500 61.943,157.387 62.136,157.250 62.274 C 157.112 62.411,157.000 62.706,157.000 62.929 C 157.000 63.151,156.941 63.333,156.869 63.333 C 156.797 63.333,156.597 63.577,156.423 63.875 C 156.250 64.173,156.064 64.454,156.009 64.500 C 155.771 64.698,155.333 65.510,155.333 65.752 C 155.333 65.897,155.146 66.190,154.917 66.402 C 154.688 66.614,154.500 66.873,154.500 66.977 C 154.500 67.082,154.434 67.167,154.353 67.167 C 153.661 67.167,153.248 78.970,153.930 79.232 C 154.336 79.388,156.167 79.352,156.167 79.188 C 156.167 79.109,156.520 79.003,156.953 78.955 C 157.385 78.906,157.767 78.784,157.800 78.683 C 157.834 78.582,158.112 78.500,158.418 78.500 C 158.814 78.500,159.071 78.379,159.304 78.083 C 159.529 77.797,159.795 77.667,160.154 77.667 C 160.465 77.667,160.716 77.565,160.773 77.417 C 160.826 77.279,161.048 77.167,161.268 77.167 C 161.487 77.167,161.667 77.092,161.667 77.000 C 161.667 76.908,161.921 76.833,162.232 76.833 C 162.581 76.833,162.834 76.738,162.894 76.583 C 162.954 76.426,163.209 76.333,163.578 76.333 C 163.902 76.333,164.167 76.258,164.167 76.167 C 164.167 76.075,164.349 76.000,164.571 76.000 C 164.975 76.000,165.500 75.616,165.500 75.321 C 165.500 75.236,165.753 75.167,166.063 75.167 C 166.373 75.167,166.719 75.054,166.833 74.917 C 166.951 74.774,167.315 74.667,167.677 74.667 C 168.027 74.667,168.360 74.592,168.417 74.500 C 168.553 74.279,172.613 74.279,172.750 74.500 C 172.807 74.592,173.299 74.667,173.843 74.667 C 174.612 74.667,174.833 74.722,174.833 74.917 C 174.833 75.090,175.008 75.167,175.405 75.167 C 175.831 75.167,176.005 75.252,176.083 75.500 C 176.156 75.730,176.392 75.865,176.848 75.938 C 177.211 75.996,177.548 76.109,177.597 76.189 C 177.646 76.268,177.947 76.333,178.265 76.333 C 178.626 76.333,178.880 76.428,178.940 76.583 C 178.994 76.726,179.243 76.833,179.518 76.833 C 179.783 76.833,180.000 76.908,180.000 77.000 C 180.000 77.092,180.262 77.167,180.583 77.167 C 180.991 77.167,181.167 77.242,181.167 77.417 C 181.167 77.595,181.347 77.667,181.794 77.667 C 182.284 77.667,182.457 77.748,182.585 78.042 C 182.713 78.331,182.911 78.428,183.458 78.468 C 183.848 78.496,184.167 78.586,184.167 78.669 C 184.167 78.751,184.448 78.869,184.792 78.931 C 185.135 78.993,185.505 79.113,185.612 79.198 C 185.720 79.283,186.170 79.330,186.612 79.301 L 187.417 79.250 187.460 72.995 L 187.504 66.741 187.018 66.454 C 186.751 66.296,186.379 66.167,186.192 66.167 C 186.006 66.167,185.807 66.092,185.750 66.000 C 185.693 65.908,185.283 65.833,184.837 65.833 C 184.392 65.833,184.001 65.753,183.969 65.656 C 183.936 65.558,183.574 65.435,183.163 65.381 C 182.753 65.328,182.363 65.194,182.297 65.083 C 182.231 64.972,181.722 64.785,181.167 64.667 C 180.611 64.549,180.117 64.388,180.069 64.310 C 180.020 64.231,179.619 64.167,179.177 64.167 C 178.667 64.167,178.299 64.076,178.167 63.917 C 178.034 63.757,177.666 63.667,177.146 63.667 C 176.699 63.667,176.333 63.592,176.333 63.500 C 176.333 63.408,175.915 63.333,175.405 63.333 C 174.802 63.333,174.389 63.246,174.226 63.083 C 174.025 62.882,173.462 62.833,171.345 62.833 L 168.713 62.833 168.793 62.417 C 168.836 62.188,168.976 62.000,169.103 62.000 C 169.230 62.000,169.333 61.920,169.333 61.821 C 169.333 61.591,169.757 61.167,169.988 61.167 C 170.086 61.167,170.167 61.098,170.167 61.014 C 170.167 60.929,170.804 60.221,171.583 59.441 C 172.362 58.660,173.000 57.944,173.000 57.850 C 173.000 57.756,173.300 57.383,173.667 57.020 C 174.033 56.656,174.333 56.279,174.333 56.180 C 174.333 56.081,174.414 56.000,174.512 56.000 C 174.734 56.000,175.167 55.579,175.167 55.363 C 175.167 55.275,175.279 55.159,175.417 55.106 C 175.554 55.054,175.667 54.909,175.667 54.786 C 175.667 54.662,176.113 54.094,176.658 53.523 C 177.203 52.952,177.696 52.338,177.752 52.159 C 177.809 51.980,177.926 51.833,178.011 51.833 C 178.097 51.833,178.167 51.759,178.167 51.669 C 178.167 51.501,178.330 51.287,179.292 50.197 C 179.589 49.860,179.833 49.415,179.833 49.208 C 179.833 49.002,179.914 48.833,180.012 48.833 C 180.234 48.833,180.667 48.413,180.667 48.196 C 180.667 48.108,180.779 47.992,180.917 47.940 C 181.054 47.887,181.167 47.691,181.167 47.505 C 181.167 47.319,181.242 47.167,181.333 47.167 C 181.425 47.167,181.500 47.054,181.500 46.917 C 181.500 46.779,181.571 46.667,181.659 46.667 C 181.746 46.667,181.940 46.410,182.088 46.096 C 182.237 45.782,182.466 45.485,182.596 45.435 C 182.727 45.385,182.833 45.235,182.833 45.102 C 182.833 44.801,183.372 43.836,183.542 43.834 C 183.610 43.834,183.667 43.755,183.667 43.659 C 183.667 43.563,183.854 43.310,184.083 43.098 C 184.313 42.886,184.500 42.598,184.500 42.460 C 184.500 42.321,184.612 42.114,184.750 42.000 C 184.887 41.886,185.000 41.708,185.000 41.605 C 185.000 41.501,185.263 41.122,185.583 40.761 L 186.167 40.106 186.167 34.404 C 186.167 29.359,186.136 28.691,185.903 28.601 C 185.475 28.437,156.122 28.505,155.708 28.672 M212.560 38.917 C 212.620 39.074,212.875 39.167,213.245 39.167 C 213.568 39.167,213.833 39.242,213.833 39.333 C 213.833 39.425,213.973 39.500,214.143 39.500 C 214.314 39.500,214.594 39.688,214.766 39.917 C 214.938 40.146,215.174 40.333,215.290 40.333 C 215.405 40.333,215.500 40.433,215.500 40.555 C 215.500 40.677,215.688 40.877,215.917 41.000 C 216.146 41.123,216.333 41.323,216.333 41.445 C 216.333 41.567,216.407 41.667,216.497 41.667 C 216.587 41.667,216.707 41.854,216.765 42.083 C 216.822 42.313,216.936 42.500,217.018 42.500 C 217.100 42.500,217.167 42.612,217.167 42.750 C 217.167 42.887,217.279 43.000,217.417 43.000 C 217.572 43.000,217.667 43.157,217.667 43.417 C 217.667 43.646,217.742 43.833,217.833 43.833 C 217.925 43.833,218.000 44.021,218.000 44.250 C 218.000 44.509,218.094 44.667,218.250 44.667 C 218.424 44.667,218.500 44.841,218.500 45.240 C 218.500 45.556,218.575 45.860,218.667 45.917 C 218.758 45.973,218.833 46.345,218.833 46.742 C 218.833 47.230,218.914 47.495,219.083 47.560 C 219.275 47.634,219.333 47.949,219.333 48.911 C 219.333 49.637,219.404 50.167,219.500 50.167 C 219.606 50.167,219.667 51.608,219.667 54.157 C 219.667 56.637,219.604 58.186,219.500 58.250 C 219.408 58.307,219.333 58.879,219.333 59.522 C 219.333 60.338,219.258 60.766,219.083 60.940 C 218.946 61.078,218.833 61.485,218.833 61.845 C 218.833 62.205,218.758 62.500,218.667 62.500 C 218.575 62.500,218.500 62.754,218.500 63.066 C 218.500 63.414,218.404 63.668,218.250 63.727 C 218.112 63.780,218.000 64.013,218.000 64.245 C 218.000 64.477,217.925 64.667,217.833 64.667 C 217.742 64.667,217.667 64.854,217.667 65.083 C 217.667 65.313,217.589 65.500,217.495 65.500 C 217.400 65.500,217.273 65.630,217.212 65.788 C 217.152 65.946,216.929 66.236,216.718 66.432 C 216.506 66.628,216.333 66.839,216.333 66.901 C 216.333 66.964,216.146 67.217,215.917 67.464 C 215.688 67.711,215.500 68.008,215.500 68.123 C 215.500 68.239,215.387 68.333,215.250 68.333 C 215.112 68.333,215.000 68.446,215.000 68.583 C 215.000 68.739,214.843 68.833,214.583 68.833 C 214.354 68.833,214.167 68.908,214.167 69.000 C 214.167 69.092,213.872 69.167,213.512 69.167 C 213.152 69.167,212.745 69.279,212.607 69.417 C 212.274 69.750,210.536 69.746,210.093 69.411 C 209.915 69.277,209.521 69.167,209.218 69.167 C 208.915 69.167,208.667 69.092,208.667 69.000 C 208.667 68.908,208.479 68.833,208.250 68.833 C 207.991 68.833,207.833 68.739,207.833 68.583 C 207.833 68.446,207.723 68.333,207.589 68.333 C 207.455 68.333,207.027 67.883,206.640 67.333 C 206.252 66.783,205.874 66.333,205.801 66.333 C 205.727 66.333,205.667 66.248,205.667 66.144 C 205.667 66.040,205.479 65.781,205.250 65.569 C 204.981 65.320,204.833 65.002,204.833 64.675 C 204.833 64.395,204.758 64.167,204.667 64.167 C 204.575 64.167,204.500 64.014,204.500 63.828 C 204.500 63.642,204.387 63.446,204.250 63.394 C 204.088 63.331,204.000 63.073,204.000 62.659 C 204.000 62.307,203.925 61.973,203.833 61.917 C 203.742 61.860,203.667 61.486,203.667 61.085 C 203.667 60.660,203.563 60.253,203.417 60.107 C 203.228 59.918,203.167 59.450,203.167 58.188 C 203.167 57.256,203.093 56.474,203.000 56.417 C 202.903 56.357,202.833 55.446,202.833 54.250 C 202.833 53.054,202.903 52.143,203.000 52.083 C 203.094 52.025,203.167 51.225,203.167 50.254 C 203.167 49.100,203.230 48.507,203.359 48.464 C 203.464 48.429,203.586 47.971,203.629 47.447 C 203.673 46.923,203.774 46.453,203.854 46.404 C 203.934 46.354,204.002 46.149,204.005 45.948 C 204.008 45.748,204.121 45.438,204.255 45.260 C 204.390 45.082,204.500 44.763,204.500 44.551 C 204.500 44.340,204.575 44.167,204.667 44.167 C 204.758 44.167,204.833 43.979,204.833 43.750 C 204.833 43.491,204.928 43.333,205.083 43.333 C 205.221 43.333,205.333 43.221,205.333 43.083 C 205.333 42.946,205.408 42.833,205.500 42.833 C 205.592 42.833,205.667 42.646,205.667 42.417 C 205.667 42.157,205.761 42.000,205.917 42.000 C 206.056 42.000,206.167 41.852,206.167 41.667 C 206.167 41.483,206.242 41.333,206.333 41.333 C 206.425 41.333,206.500 41.221,206.500 41.083 C 206.500 40.946,206.612 40.833,206.750 40.833 C 206.887 40.833,207.000 40.721,207.000 40.583 C 207.000 40.428,207.157 40.333,207.417 40.333 C 207.676 40.333,207.833 40.239,207.833 40.083 C 207.833 39.946,207.945 39.833,208.082 39.833 C 208.219 39.833,208.424 39.683,208.539 39.500 C 208.685 39.266,208.927 39.167,209.353 39.167 C 209.689 39.167,210.052 39.055,210.167 38.917 C 210.311 38.743,210.694 38.667,211.419 38.667 C 212.194 38.667,212.489 38.731,212.560 38.917 M298.560 38.917 C 298.619 39.069,298.871 39.167,299.205 39.167 C 299.573 39.167,299.822 39.276,299.961 39.500 C 300.076 39.683,300.281 39.833,300.418 39.833 C 300.555 39.833,300.667 39.946,300.667 40.083 C 300.667 40.221,300.779 40.333,300.917 40.333 C 301.054 40.333,301.167 40.413,301.167 40.511 C 301.167 40.609,301.429 40.937,301.750 41.239 C 302.071 41.542,302.333 41.941,302.333 42.127 C 302.333 42.312,302.446 42.508,302.583 42.560 C 302.721 42.613,302.833 42.809,302.833 42.995 C 302.833 43.181,302.908 43.333,303.000 43.333 C 303.092 43.333,303.167 43.598,303.167 43.922 C 303.167 44.291,303.260 44.546,303.417 44.606 C 303.600 44.677,303.667 44.965,303.667 45.684 C 303.667 46.228,303.741 46.667,303.833 46.667 C 303.927 46.667,304.000 47.139,304.000 47.750 L 304.000 48.833 297.250 48.833 C 290.680 48.833,290.500 48.825,290.500 48.510 C 290.500 48.332,290.575 48.140,290.667 48.083 C 290.758 48.027,290.833 47.431,290.833 46.761 C 290.833 45.880,290.903 45.483,291.083 45.333 C 291.227 45.214,291.333 44.851,291.333 44.480 C 291.333 44.124,291.408 43.833,291.500 43.833 C 291.592 43.833,291.667 43.643,291.667 43.411 C 291.667 43.179,291.779 42.946,291.917 42.894 C 292.054 42.841,292.167 42.692,292.167 42.562 C 292.167 41.687,294.604 39.169,295.452 39.168 C 295.746 39.167,296.084 39.057,296.202 38.923 C 296.508 38.576,298.428 38.571,298.560 38.917 M330.333 60.750 L 330.333 76.833 332.833 76.833 L 335.333 76.833 335.333 60.750 L 335.333 44.667 332.833 44.667 L 330.333 44.667 330.333 60.750 M347.667 55.000 C 347.667 55.092,347.402 55.167,347.078 55.167 C 346.709 55.167,346.454 55.260,346.394 55.417 C 346.341 55.554,346.118 55.667,345.899 55.667 C 345.679 55.667,345.500 55.742,345.500 55.833 C 345.500 55.925,345.367 56.000,345.204 56.000 C 344.899 56.000,344.333 56.543,344.333 56.835 C 344.333 56.926,344.221 57.000,344.083 57.000 C 343.946 57.000,343.833 57.070,343.833 57.155 C 343.833 57.240,343.665 57.334,343.458 57.363 C 343.217 57.398,343.064 57.551,343.030 57.792 C 343.001 57.998,342.907 58.167,342.822 58.167 C 342.736 58.167,342.667 58.279,342.667 58.417 C 342.667 58.554,342.586 58.667,342.488 58.667 C 342.234 58.667,341.897 59.037,341.761 59.466 C 341.697 59.668,341.574 59.833,341.489 59.833 C 341.403 59.833,341.333 60.012,341.333 60.230 C 341.333 60.448,341.221 60.719,341.083 60.833 C 340.946 60.947,340.833 61.257,340.833 61.520 C 340.833 61.784,340.758 62.000,340.667 62.000 C 340.560 62.000,340.500 63.444,340.500 66.000 C 340.500 68.556,340.560 70.000,340.667 70.000 C 340.758 70.000,340.833 70.265,340.833 70.589 C 340.833 70.958,340.926 71.213,341.083 71.273 C 341.221 71.326,341.333 71.548,341.333 71.768 C 341.333 71.987,341.403 72.167,341.489 72.167 C 341.574 72.167,341.697 72.335,341.762 72.542 C 341.827 72.748,342.132 73.155,342.440 73.447 C 342.748 73.739,343.000 74.133,343.000 74.322 C 343.000 74.512,343.104 74.667,343.232 74.667 C 343.360 74.667,343.508 74.779,343.560 74.917 C 343.613 75.054,343.776 75.167,343.923 75.167 C 344.227 75.167,344.667 75.554,344.667 75.821 C 344.667 75.920,344.779 76.000,344.917 76.000 C 345.054 76.000,345.167 76.075,345.167 76.167 C 345.167 76.258,345.354 76.333,345.583 76.333 C 345.843 76.333,346.000 76.428,346.000 76.583 C 346.000 76.764,346.185 76.833,346.667 76.833 C 347.033 76.833,347.333 76.908,347.333 77.000 C 347.333 77.106,348.778 77.167,351.333 77.167 C 353.889 77.167,355.333 77.106,355.333 77.000 C 355.333 76.908,355.596 76.833,355.917 76.833 C 356.324 76.833,356.500 76.758,356.500 76.583 C 356.500 76.403,356.685 76.333,357.167 76.333 C 357.533 76.333,357.833 76.258,357.833 76.167 C 357.833 76.075,358.021 76.000,358.250 76.000 C 358.509 76.000,358.667 75.906,358.667 75.750 C 358.667 75.612,358.747 75.500,358.845 75.500 C 359.386 75.500,359.500 75.024,359.500 72.762 L 359.500 70.500 358.917 70.500 C 358.596 70.500,358.333 70.575,358.333 70.667 C 358.333 70.758,358.146 70.833,357.917 70.833 C 357.657 70.833,357.500 70.928,357.500 71.083 C 357.500 71.237,357.344 71.333,357.093 71.333 C 356.869 71.333,356.640 71.408,356.583 71.500 C 356.527 71.592,356.332 71.667,356.152 71.667 C 355.971 71.667,355.780 71.779,355.727 71.917 C 355.660 72.092,355.387 72.167,354.816 72.167 C 354.367 72.167,354.000 72.242,354.000 72.333 C 354.000 72.436,353.194 72.500,351.917 72.500 C 350.639 72.500,349.833 72.436,349.833 72.333 C 349.833 72.242,349.682 72.167,349.497 72.167 C 348.718 72.167,346.000 69.835,346.000 69.167 C 346.000 68.981,345.889 68.833,345.750 68.833 C 345.561 68.833,345.500 68.630,345.500 68.000 C 345.500 67.542,345.425 67.167,345.333 67.167 C 345.242 67.167,345.167 67.054,345.167 66.917 C 345.167 66.698,346.102 66.667,352.583 66.667 L 360.000 66.667 360.000 64.750 C 360.000 63.157,359.958 62.833,359.750 62.833 C 359.561 62.833,359.500 62.630,359.500 62.000 C 359.500 61.542,359.425 61.167,359.333 61.167 C 359.242 61.167,359.167 60.902,359.167 60.578 C 359.167 60.209,359.074 59.954,358.917 59.894 C 358.779 59.841,358.667 59.650,358.667 59.470 C 358.667 59.116,358.300 58.667,358.012 58.667 C 357.914 58.667,357.833 58.479,357.833 58.250 C 357.833 57.991,357.739 57.833,357.583 57.833 C 357.446 57.833,357.333 57.753,357.333 57.655 C 357.333 57.424,356.909 57.000,356.679 57.000 C 356.580 57.000,356.500 56.920,356.500 56.821 C 356.500 56.567,356.130 56.230,355.701 56.094 C 355.499 56.030,355.333 55.908,355.333 55.822 C 355.333 55.737,355.154 55.667,354.934 55.667 C 354.715 55.667,354.492 55.554,354.440 55.417 C 354.380 55.260,354.125 55.167,353.755 55.167 C 353.432 55.167,353.167 55.092,353.167 55.000 C 353.167 54.896,352.139 54.833,350.417 54.833 C 348.694 54.833,347.667 54.896,347.667 55.000 M371.000 55.000 C 371.000 55.092,370.735 55.167,370.411 55.167 C 370.042 55.167,369.787 55.260,369.727 55.417 C 369.674 55.554,369.452 55.667,369.232 55.667 C 369.013 55.667,368.833 55.742,368.833 55.833 C 368.833 55.925,368.700 56.000,368.537 56.000 C 368.232 56.000,367.667 56.543,367.667 56.835 C 367.667 56.926,367.479 57.000,367.250 57.000 C 367.021 57.000,366.833 57.075,366.833 57.167 C 366.833 57.258,366.721 57.333,366.583 57.333 C 366.446 57.333,366.333 57.438,366.333 57.566 C 366.333 57.693,366.221 57.841,366.083 57.894 C 365.946 57.946,365.833 58.124,365.833 58.289 C 365.833 58.453,365.646 58.728,365.417 58.900 C 365.188 59.073,365.000 59.353,365.000 59.523 C 365.000 59.694,364.925 59.833,364.833 59.833 C 364.742 59.833,364.667 60.013,364.667 60.232 C 364.667 60.452,364.554 60.674,364.417 60.727 C 364.260 60.787,364.167 61.042,364.167 61.411 C 364.167 61.735,364.092 62.000,364.000 62.000 C 363.904 62.000,363.833 62.522,363.833 63.232 C 363.833 64.174,363.774 64.487,363.583 64.560 C 363.388 64.635,363.333 64.968,363.333 66.078 C 363.333 67.231,363.381 67.500,363.583 67.500 C 363.783 67.500,363.833 67.750,363.833 68.750 C 363.833 69.472,363.904 70.000,364.000 70.000 C 364.092 70.000,364.167 70.300,364.167 70.667 C 364.167 71.148,364.236 71.333,364.417 71.333 C 364.572 71.333,364.667 71.491,364.667 71.750 C 364.667 71.979,364.742 72.167,364.833 72.167 C 364.925 72.167,365.000 72.319,365.000 72.505 C 365.000 72.691,365.113 72.887,365.250 72.940 C 365.387 72.992,365.500 73.140,365.500 73.268 C 365.500 73.396,365.575 73.500,365.667 73.500 C 365.758 73.500,365.836 73.594,365.839 73.708 C 365.846 73.986,366.423 74.667,366.652 74.667 C 366.752 74.667,366.833 74.747,366.833 74.845 C 366.833 75.139,367.286 75.500,367.655 75.500 C 367.851 75.500,368.000 75.608,368.000 75.750 C 368.000 75.887,368.113 76.000,368.250 76.000 C 368.387 76.000,368.500 76.075,368.500 76.167 C 368.500 76.258,368.688 76.333,368.917 76.333 C 369.176 76.333,369.333 76.428,369.333 76.583 C 369.333 76.758,369.509 76.833,369.917 76.833 C 370.238 76.833,370.500 76.908,370.500 77.000 C 370.500 77.107,371.972 77.167,374.583 77.167 C 377.194 77.167,378.667 77.107,378.667 77.000 C 378.667 76.908,378.929 76.833,379.250 76.833 C 379.657 76.833,379.833 76.758,379.833 76.583 C 379.833 76.403,380.019 76.333,380.500 76.333 C 380.867 76.333,381.167 76.258,381.167 76.167 C 381.167 76.075,381.306 76.000,381.477 76.000 C 381.647 76.000,381.927 75.813,382.100 75.583 C 382.272 75.354,382.507 75.167,382.623 75.167 C 382.782 75.167,382.833 74.601,382.833 72.833 L 382.833 70.500 382.167 70.500 C 381.800 70.500,381.500 70.575,381.500 70.667 C 381.500 70.758,381.348 70.833,381.161 70.833 C 380.975 70.833,380.780 70.946,380.727 71.083 C 380.674 71.221,380.452 71.333,380.232 71.333 C 380.013 71.333,379.833 71.408,379.833 71.500 C 379.833 71.592,379.681 71.667,379.495 71.667 C 379.309 71.667,379.113 71.779,379.060 71.917 C 378.993 72.092,378.720 72.167,378.149 72.167 C 377.700 72.167,377.333 72.242,377.333 72.333 C 377.333 72.436,376.531 72.500,375.260 72.500 C 374.057 72.500,373.143 72.430,373.083 72.333 C 373.027 72.242,372.722 72.167,372.407 72.167 C 372.008 72.167,371.833 72.090,371.833 71.917 C 371.833 71.779,371.721 71.667,371.583 71.667 C 371.446 71.667,371.333 71.592,371.333 71.500 C 371.333 71.408,371.146 71.333,370.917 71.333 C 370.657 71.333,370.500 71.239,370.500 71.083 C 370.500 70.946,370.425 70.833,370.333 70.833 C 370.242 70.833,370.167 70.694,370.167 70.523 C 370.167 70.353,369.979 70.073,369.750 69.900 C 369.521 69.728,369.333 69.418,369.333 69.210 C 369.333 68.986,369.232 68.833,369.083 68.833 C 368.894 68.833,368.833 68.630,368.833 68.000 C 368.833 67.542,368.758 67.167,368.667 67.167 C 368.575 67.167,368.500 67.054,368.500 66.917 C 368.500 66.698,369.437 66.667,375.931 66.667 L 383.363 66.667 383.306 64.805 C 383.267 63.506,383.187 62.923,383.042 62.875 C 382.913 62.832,382.833 62.494,382.833 61.986 C 382.833 61.369,382.772 61.167,382.583 61.167 C 382.410 61.167,382.333 60.992,382.333 60.593 C 382.333 60.278,382.258 59.973,382.167 59.917 C 382.075 59.860,382.000 59.679,382.000 59.514 C 382.000 59.348,381.813 59.073,381.583 58.900 C 381.354 58.728,381.167 58.418,381.167 58.210 C 381.167 57.986,381.065 57.833,380.917 57.833 C 380.779 57.833,380.667 57.753,380.667 57.655 C 380.667 57.424,380.243 57.000,380.012 57.000 C 379.914 57.000,379.833 56.887,379.833 56.750 C 379.833 56.607,379.683 56.500,379.482 56.500 C 379.289 56.500,378.984 56.313,378.804 56.083 C 378.622 55.853,378.303 55.667,378.089 55.667 C 377.876 55.667,377.659 55.554,377.606 55.417 C 377.541 55.245,377.273 55.167,376.755 55.167 C 376.340 55.167,376.000 55.092,376.000 55.000 C 376.000 54.896,375.056 54.833,373.500 54.833 C 371.944 54.833,371.000 54.896,371.000 55.000 M137.761 57.929 C 137.544 58.147,137.500 58.687,137.500 61.169 C 137.500 62.853,137.432 64.189,137.343 64.244 C 137.257 64.297,137.136 64.677,137.074 65.087 C 137.013 65.498,136.896 65.833,136.814 65.833 C 136.733 65.833,136.667 65.946,136.667 66.083 C 136.667 66.221,136.610 66.334,136.542 66.336 C 136.473 66.337,136.154 66.786,135.833 67.333 C 135.512 67.881,135.194 68.329,135.125 68.331 C 135.056 68.332,135.000 68.446,135.000 68.583 C 135.000 68.739,134.843 68.833,134.583 68.833 C 134.354 68.833,134.167 68.908,134.167 69.000 C 134.167 69.092,133.979 69.167,133.750 69.167 C 133.491 69.167,133.333 69.261,133.333 69.417 C 133.333 69.592,133.157 69.667,132.742 69.667 C 132.325 69.667,132.037 69.790,131.765 70.083 C 131.387 70.491,129.833 70.721,129.833 70.369 C 129.833 70.189,128.923 69.667,128.608 69.667 C 128.466 69.667,128.148 69.479,127.901 69.250 C 127.654 69.021,127.312 68.833,127.142 68.833 C 126.924 68.833,126.833 68.711,126.833 68.417 C 126.833 68.188,126.758 68.000,126.667 68.000 C 126.575 68.000,126.500 67.813,126.500 67.583 C 126.500 67.324,126.406 67.167,126.250 67.167 C 126.069 67.167,126.000 66.981,126.000 66.500 C 126.000 66.133,125.925 65.833,125.833 65.833 C 125.739 65.833,125.667 65.364,125.667 64.760 C 125.667 64.169,125.742 63.640,125.833 63.583 C 125.925 63.527,126.000 63.257,126.000 62.985 C 126.000 62.698,126.105 62.449,126.250 62.394 C 126.388 62.341,126.500 62.150,126.500 61.970 C 126.500 61.616,126.866 61.167,127.155 61.167 C 127.253 61.167,127.333 61.059,127.333 60.928 C 127.333 60.797,127.502 60.666,127.708 60.637 C 127.949 60.602,128.102 60.449,128.137 60.208 C 128.180 59.904,128.296 59.833,128.752 59.833 C 129.061 59.833,129.360 59.758,129.417 59.667 C 129.473 59.575,129.778 59.500,130.093 59.500 C 130.492 59.500,130.667 59.424,130.667 59.250 C 130.667 59.061,130.870 59.000,131.500 59.000 C 131.958 59.000,132.333 58.935,132.333 58.855 C 132.333 58.775,132.783 58.659,133.333 58.597 C 133.883 58.534,134.333 58.412,134.333 58.325 C 134.333 58.238,134.540 58.165,134.792 58.163 C 135.430 58.158,136.667 57.568,136.667 57.268 C 136.667 57.102,136.873 57.003,137.292 56.968 C 138.003 56.910,138.258 57.432,137.761 57.929 M33.667 60.583 C 33.667 62.861,33.606 64.167,33.500 64.167 C 33.408 64.167,33.333 64.542,33.333 65.000 C 33.333 65.630,33.272 65.833,33.083 65.833 C 32.946 65.833,32.833 65.946,32.833 66.083 C 32.833 66.221,32.758 66.333,32.667 66.333 C 32.575 66.333,32.500 66.446,32.500 66.583 C 32.500 66.721,32.442 66.833,32.372 66.833 C 32.301 66.833,32.059 67.171,31.833 67.583 C 31.608 67.996,31.366 68.333,31.295 68.333 C 31.224 68.333,31.167 68.446,31.167 68.583 C 31.167 68.739,31.009 68.833,30.750 68.833 C 30.521 68.833,30.333 68.908,30.333 69.000 C 30.333 69.092,30.146 69.167,29.917 69.167 C 29.657 69.167,29.500 69.261,29.500 69.417 C 29.500 69.587,29.326 69.668,28.958 69.672 C 28.387 69.678,27.833 69.991,27.833 70.310 C 27.833 70.718,26.092 70.536,25.667 70.083 C 25.435 69.837,25.090 69.667,24.822 69.667 C 24.573 69.667,24.326 69.554,24.273 69.417 C 24.220 69.279,24.060 69.167,23.916 69.167 C 23.466 69.167,22.667 68.204,22.667 67.661 C 22.667 67.333,22.583 67.167,22.417 67.167 C 22.250 67.167,22.167 67.000,22.167 66.667 C 22.167 66.392,22.092 66.167,22.000 66.167 C 21.902 66.167,21.833 65.587,21.833 64.760 C 21.833 63.986,21.908 63.307,22.000 63.250 C 22.092 63.193,22.167 62.964,22.167 62.740 C 22.167 62.490,22.263 62.333,22.417 62.333 C 22.572 62.333,22.667 62.176,22.667 61.917 C 22.667 61.688,22.747 61.500,22.845 61.500 C 23.071 61.500,23.500 61.078,23.500 60.857 C 23.500 60.765,23.669 60.666,23.875 60.637 C 24.116 60.602,24.269 60.449,24.303 60.208 C 24.346 59.904,24.463 59.833,24.918 59.833 C 25.227 59.833,25.527 59.758,25.583 59.667 C 25.640 59.575,25.944 59.500,26.260 59.500 C 26.659 59.500,26.833 59.424,26.833 59.250 C 26.833 59.061,27.037 59.000,27.667 59.000 C 28.125 59.000,28.500 58.935,28.500 58.857 C 28.500 58.778,28.888 58.667,29.362 58.611 C 29.836 58.555,30.301 58.432,30.396 58.338 C 30.490 58.244,30.758 58.165,30.992 58.163 C 31.613 58.158,32.833 57.558,32.833 57.258 C 32.833 57.094,32.985 57.000,33.250 57.000 L 33.667 57.000 33.667 60.583 M352.333 59.667 C 352.333 59.758,352.446 59.833,352.583 59.833 C 352.721 59.833,352.833 59.946,352.833 60.083 C 352.833 60.239,352.991 60.333,353.250 60.333 C 353.560 60.333,353.667 60.421,353.667 60.679 C 353.667 61.048,354.027 61.500,354.321 61.500 C 354.420 61.500,354.500 61.725,354.500 62.000 C 354.500 62.275,354.575 62.500,354.667 62.500 C 354.758 62.500,354.833 62.762,354.833 63.083 L 354.833 63.667 350.167 63.667 L 345.500 63.667 345.500 63.083 C 345.500 62.676,345.575 62.500,345.750 62.500 C 345.907 62.500,346.000 62.341,346.000 62.071 C 346.000 61.632,346.337 61.167,346.655 61.167 C 346.753 61.167,346.833 61.086,346.833 60.988 C 346.833 60.757,347.257 60.333,347.488 60.333 C 347.586 60.333,347.667 60.221,347.667 60.083 C 347.667 59.928,347.824 59.833,348.083 59.833 C 348.313 59.833,348.500 59.758,348.500 59.667 C 348.500 59.565,349.250 59.500,350.417 59.500 C 351.583 59.500,352.333 59.565,352.333 59.667 M375.250 59.667 C 375.307 59.758,375.488 59.833,375.653 59.833 C 375.818 59.833,376.094 60.021,376.266 60.250 C 376.438 60.479,376.674 60.667,376.790 60.667 C 376.905 60.667,377.000 60.747,377.000 60.845 C 377.000 61.076,377.424 61.500,377.655 61.500 C 377.753 61.500,377.833 61.800,377.833 62.167 C 377.833 62.533,377.908 62.833,378.000 62.833 C 378.092 62.833,378.167 63.021,378.167 63.250 L 378.167 63.667 373.500 63.667 L 368.833 63.667 368.833 63.101 C 368.833 62.752,368.929 62.499,369.083 62.440 C 369.221 62.387,369.333 62.186,369.333 61.993 C 369.333 61.620,369.692 61.167,369.988 61.167 C 370.086 61.167,370.167 61.086,370.167 60.988 C 370.167 60.757,370.591 60.333,370.821 60.333 C 370.920 60.333,371.000 60.221,371.000 60.083 C 371.000 59.928,371.157 59.833,371.417 59.833 C 371.646 59.833,371.833 59.758,371.833 59.667 C 371.833 59.567,372.497 59.500,373.490 59.500 C 374.415 59.500,375.193 59.574,375.250 59.667 M319.542 71.583 C 319.427 71.713,319.333 71.897,319.333 71.993 C 319.333 72.089,319.221 72.167,319.083 72.167 C 318.946 72.167,318.833 72.279,318.833 72.417 C 318.833 72.554,318.758 72.667,318.667 72.667 C 318.567 72.667,318.500 73.310,318.500 74.262 C 318.500 75.838,318.657 76.333,319.155 76.333 C 319.253 76.333,319.333 76.414,319.333 76.512 C 319.333 77.029,319.822 77.167,321.655 77.167 C 322.774 77.167,323.500 77.101,323.500 77.000 C 323.500 76.908,323.612 76.833,323.750 76.833 C 323.887 76.833,324.000 76.721,324.000 76.583 C 324.000 76.446,324.075 76.333,324.167 76.333 C 324.258 76.333,324.333 76.146,324.333 75.917 C 324.333 75.657,324.428 75.500,324.583 75.500 C 324.783 75.500,324.833 75.250,324.833 74.250 C 324.833 73.250,324.783 73.000,324.583 73.000 C 324.441 73.000,324.333 72.850,324.333 72.654 C 324.333 71.529,320.369 70.643,319.542 71.583 " stroke="none" fill="#040404" fill-rule="evenodd"></path><path id="path2" d="" stroke="none" fill="#c0b00c" fill-rule="evenodd"></path><path id="path3" d="" stroke="none" fill="#405c0c" fill-rule="evenodd"></path><path id="path4" d="" stroke="none" fill="#44040c" fill-rule="evenodd"></path></g></svg>