<svg id="svg" version="1.1" xmlns="http://www.w3.org/2000/svg" xmlns:xlink="http://www.w3.org/1999/xlink" width="400" height="56.72797676669894" viewBox="0, 0, 400,56.72797676669894"><g id="svgg"><path id="path0" d="M199.265 37.084 C 199.018 37.313,198.613 37.614,198.366 37.752 C 197.596 38.184,197.301 38.399,196.710 38.958 C 196.128 39.509,195.889 39.648,196.094 39.316 C 196.157 39.215,196.017 39.257,195.785 39.409 C 195.552 39.562,195.316 39.805,195.260 39.951 C 195.204 40.096,195.116 40.171,195.063 40.118 C 194.962 40.018,192.840 41.430,192.628 41.738 C 192.560 41.836,192.504 41.851,192.503 41.771 C 192.501 41.691,192.399 41.710,192.275 41.812 C 192.110 41.950,167.852 41.999,100.642 42.000 L 9.234 42.002 8.617 42.584 C 7.839 43.317,7.664 46.000,8.394 46.000 C 8.500 46.000,8.680 46.150,8.795 46.333 C 9.076 46.784,390.653 46.871,391.103 46.420 C 391.239 46.285,391.470 46.106,391.618 46.024 C 391.974 45.825,392.168 43.167,391.827 43.167 C 391.708 43.167,391.659 43.119,391.718 43.060 C 391.777 43.001,391.583 42.740,391.287 42.480 L 390.750 42.006 299.285 42.003 C 212.857 41.999,207.795 41.983,207.368 41.711 C 207.120 41.552,206.509 41.106,206.011 40.720 C 205.513 40.334,205.048 40.054,204.978 40.097 C 204.908 40.140,204.770 40.026,204.672 39.843 C 204.574 39.660,204.158 39.313,203.747 39.073 C 203.336 38.832,203.000 38.559,203.000 38.466 C 203.000 38.374,202.871 38.347,202.713 38.408 C 202.556 38.468,202.478 38.466,202.541 38.403 C 202.720 38.225,200.530 36.667,200.100 36.667 C 199.888 36.667,199.513 36.854,199.265 37.084 " stroke="none" fill="#fcac14" fill-rule="evenodd"></path><path id="path1" d="M237.833 6.383 C 237.833 6.502,238.283 7.024,238.833 7.543 C 239.383 8.062,239.833 8.540,239.833 8.606 C 239.833 8.671,240.265 9.162,240.792 9.695 L 241.750 10.666 243.208 10.666 C 244.715 10.667,244.981 10.518,244.455 9.970 C 244.256 9.763,243.959 9.115,243.496 7.875 C 243.384 7.577,243.242 7.333,243.180 7.333 C 243.118 7.333,242.972 7.071,242.856 6.750 L 242.645 6.167 240.239 6.167 C 238.379 6.167,237.833 6.216,237.833 6.383 M95.000 12.000 C 95.000 12.092,94.807 12.167,94.570 12.167 C 93.940 12.167,92.007 12.976,91.333 13.522 C 90.162 14.471,89.239 15.470,89.096 15.943 C 89.036 16.141,88.878 16.394,88.745 16.504 C 88.167 16.984,87.460 20.312,87.436 22.667 C 87.415 24.783,88.023 27.979,88.553 28.542 C 88.662 28.656,88.862 28.973,89.000 29.245 C 89.376 29.990,91.260 31.820,91.946 32.106 C 92.277 32.245,92.650 32.460,92.775 32.585 C 93.720 33.529,101.500 33.480,101.500 32.529 C 101.500 32.466,101.733 32.311,102.018 32.185 C 103.310 31.614,105.416 28.630,105.767 26.875 C 105.867 26.375,105.062 26.015,102.875 25.581 C 102.577 25.522,102.333 25.404,102.333 25.320 C 102.333 24.629,101.337 25.236,101.093 26.075 C 100.948 26.574,100.750 27.032,100.654 27.091 C 100.558 27.150,100.413 27.375,100.331 27.589 C 100.249 27.804,99.807 28.277,99.347 28.640 C 96.610 30.804,92.333 28.442,92.333 24.766 C 92.333 24.528,92.258 24.333,92.167 24.333 C 91.960 24.333,91.939 21.057,92.145 20.930 C 92.224 20.881,92.338 20.483,92.397 20.045 C 92.832 16.840,95.583 15.095,98.619 16.096 C 99.553 16.405,100.798 17.623,101.031 18.458 C 101.216 19.120,101.296 19.126,103.792 18.635 C 105.960 18.209,106.037 18.098,105.250 16.531 C 105.021 16.075,104.833 15.630,104.833 15.542 C 104.833 15.281,103.144 13.500,102.896 13.500 C 102.770 13.500,102.667 13.424,102.667 13.331 C 102.667 13.123,101.031 12.385,100.242 12.237 C 99.923 12.178,99.622 12.062,99.572 11.981 C 99.442 11.772,95.000 11.790,95.000 12.000 M116.333 12.000 C 116.333 12.092,116.127 12.168,115.875 12.170 C 115.240 12.175,113.124 12.941,112.898 13.248 C 112.797 13.387,112.642 13.500,112.555 13.500 C 112.310 13.500,110.552 15.405,110.424 15.809 C 110.362 16.006,110.238 16.167,110.150 16.167 C 109.959 16.167,109.429 17.351,109.250 18.173 C 109.181 18.490,109.059 18.792,108.978 18.844 C 108.448 19.183,108.459 26.125,108.990 26.302 C 109.087 26.335,109.168 26.524,109.171 26.722 C 109.185 28.012,111.173 30.944,112.583 31.756 C 112.767 31.862,113.292 32.161,113.750 32.420 C 116.082 33.740,121.482 33.679,123.957 32.305 C 125.746 31.312,128.000 28.577,128.000 27.400 C 128.000 27.272,128.062 27.167,128.138 27.167 C 128.921 27.167,128.961 18.459,128.179 18.198 C 128.080 18.166,128.000 18.035,128.000 17.908 C 128.000 17.517,127.196 15.833,127.009 15.833 C 126.912 15.833,126.833 15.740,126.832 15.625 C 126.825 14.671,123.732 12.595,121.792 12.243 C 121.448 12.181,121.167 12.063,121.167 11.981 C 121.167 11.900,120.079 11.833,118.750 11.833 C 117.250 11.833,116.333 11.897,116.333 12.000 M209.167 12.000 C 209.029 12.081,208.383 12.300,207.731 12.488 C 205.473 13.138,202.500 16.226,202.500 17.921 C 202.500 18.056,202.430 18.167,202.345 18.167 C 202.025 18.167,201.760 20.149,201.755 22.583 C 201.750 25.025,202.040 27.333,202.352 27.333 C 202.433 27.333,202.500 27.420,202.500 27.526 C 202.500 28.127,203.622 29.926,204.512 30.750 C 204.611 30.842,204.893 31.110,205.138 31.347 C 207.383 33.517,213.769 34.107,216.750 32.420 C 217.208 32.161,217.733 31.864,217.917 31.762 C 218.348 31.520,219.833 30.055,219.833 29.871 C 219.833 29.793,219.975 29.577,220.149 29.391 C 220.578 28.930,220.905 28.244,221.170 27.250 C 221.292 26.792,221.454 26.374,221.531 26.323 C 222.028 25.986,222.019 19.569,221.521 18.931 C 221.443 18.831,221.216 18.203,221.016 17.534 C 220.816 16.865,220.550 16.278,220.425 16.230 C 220.300 16.182,220.111 15.934,220.005 15.680 C 219.823 15.238,218.780 14.202,217.670 13.356 C 217.099 12.922,215.131 12.176,214.542 12.170 C 214.335 12.168,214.167 12.092,214.167 12.000 C 214.167 11.791,209.522 11.791,209.167 12.000 M325.833 12.000 C 325.833 12.092,325.653 12.167,325.432 12.167 C 324.770 12.167,323.055 12.765,322.503 13.188 C 320.338 14.849,319.154 16.478,318.746 18.358 C 318.679 18.665,318.540 18.970,318.437 19.036 C 318.182 19.197,318.174 26.129,318.429 26.298 C 318.527 26.363,318.708 26.792,318.830 27.250 C 319.356 29.221,321.070 31.370,322.691 32.089 C 323.090 32.266,323.516 32.506,323.637 32.622 C 323.758 32.738,324.020 32.870,324.220 32.915 C 324.420 32.960,324.921 33.071,325.333 33.161 C 327.740 33.687,331.846 33.258,333.378 32.320 C 333.814 32.052,334.224 31.833,334.288 31.833 C 334.404 31.833,334.729 31.548,335.464 30.803 C 336.367 29.886,336.970 29.027,337.258 28.250 C 337.427 27.792,337.614 27.379,337.673 27.333 C 338.585 26.620,338.462 19.453,337.505 17.590 C 337.319 17.227,337.167 16.844,337.167 16.739 C 337.167 16.634,336.979 16.346,336.750 16.099 C 336.521 15.852,336.333 15.593,336.333 15.524 C 336.333 15.328,334.456 13.500,334.254 13.500 C 334.155 13.500,333.949 13.354,333.797 13.176 C 333.526 12.860,331.600 12.167,330.992 12.167 C 330.824 12.167,330.640 12.092,330.583 12.000 C 330.523 11.902,329.526 11.833,328.157 11.833 C 326.719 11.833,325.833 11.897,325.833 12.000 M20.833 12.482 C 20.833 12.887,21.377 15.426,21.480 15.499 C 21.545 15.545,21.812 16.708,22.074 18.083 C 22.335 19.458,22.611 20.663,22.686 20.761 C 22.761 20.858,23.058 22.133,23.345 23.594 C 23.633 25.055,23.919 26.287,23.982 26.333 C 24.044 26.379,24.308 27.504,24.568 28.833 C 24.828 30.162,25.103 31.329,25.180 31.425 C 25.256 31.521,25.369 31.917,25.431 32.304 L 25.544 33.008 28.056 32.963 L 30.569 32.917 30.786 31.842 C 30.905 31.251,31.062 30.726,31.135 30.675 C 31.207 30.625,31.483 29.608,31.747 28.417 C 32.012 27.225,32.281 26.212,32.344 26.167 C 32.408 26.121,32.661 25.186,32.906 24.089 C 33.151 22.992,33.413 22.017,33.488 21.922 C 33.563 21.828,33.754 21.150,33.913 20.417 C 34.244 18.894,34.487 18.320,34.495 19.042 C 34.498 19.294,34.561 19.500,34.635 19.500 C 34.709 19.500,34.981 20.456,35.240 21.625 C 35.498 22.794,35.808 24.012,35.927 24.333 C 36.127 24.869,36.637 26.924,36.921 28.333 C 36.986 28.654,37.101 28.995,37.178 29.091 C 37.255 29.186,37.474 29.974,37.665 30.841 C 37.856 31.708,38.052 32.548,38.100 32.708 C 38.194 33.016,42.667 33.163,43.099 32.872 C 43.199 32.805,43.491 31.700,43.748 30.417 C 44.004 29.133,44.267 28.046,44.331 28.000 C 44.395 27.954,44.655 26.867,44.908 25.583 C 45.162 24.300,45.429 23.175,45.503 23.083 C 45.577 22.992,45.840 21.904,46.087 20.667 C 46.335 19.429,46.596 18.342,46.668 18.250 C 46.741 18.158,47.002 17.071,47.250 15.833 C 47.498 14.596,47.757 13.508,47.827 13.417 C 47.897 13.325,48.003 13.044,48.064 12.792 L 48.173 12.333 45.854 12.333 C 43.360 12.333,43.333 12.343,43.333 13.250 C 43.333 13.464,43.267 13.664,43.187 13.694 C 43.066 13.740,42.511 16.405,42.047 19.167 C 41.993 19.487,41.895 19.787,41.830 19.833 C 41.765 19.879,41.507 21.038,41.258 22.409 C 40.637 25.825,40.505 25.953,40.020 23.611 C 39.807 22.587,39.575 21.675,39.504 21.583 C 39.433 21.492,39.169 20.442,38.917 19.250 C 38.666 18.058,38.407 17.046,38.343 17.000 C 38.278 16.954,38.012 15.884,37.751 14.621 L 37.277 12.326 34.526 12.371 L 31.776 12.417 31.523 13.500 C 31.384 14.096,31.222 14.621,31.163 14.667 C 31.066 14.741,30.566 16.740,30.246 18.333 C 30.181 18.654,30.064 18.997,29.985 19.095 C 29.907 19.193,29.726 19.793,29.583 20.428 C 29.014 22.959,28.812 23.764,28.665 24.083 C 28.581 24.267,28.451 24.669,28.376 24.977 C 28.256 25.472,28.205 25.326,27.933 23.727 C 27.765 22.731,27.572 21.879,27.506 21.833 C 27.440 21.787,27.174 20.550,26.915 19.083 C 26.655 17.617,26.394 16.379,26.335 16.333 C 26.275 16.287,26.093 15.500,25.930 14.583 C 25.767 13.667,25.599 12.785,25.556 12.625 C 25.470 12.305,20.833 12.164,20.833 12.482 M50.500 22.667 L 50.500 33.000 58.417 33.000 L 66.333 33.000 66.333 31.167 L 66.333 29.333 60.583 29.333 L 54.833 29.333 54.833 26.667 L 54.833 24.000 60.000 24.000 L 65.167 24.000 65.167 22.083 L 65.167 20.167 60.000 20.167 L 54.833 20.167 54.833 18.083 L 54.833 16.000 60.417 16.000 L 66.000 16.000 66.000 14.167 L 66.000 12.333 58.250 12.333 L 50.500 12.333 50.500 22.667 M132.167 22.667 L 132.167 33.000 134.250 33.000 L 136.333 33.000 136.333 25.833 C 136.333 21.892,136.392 18.667,136.463 18.667 C 136.535 18.667,136.812 19.698,137.078 20.958 C 137.345 22.219,137.614 23.287,137.676 23.333 C 137.738 23.379,137.989 24.392,138.234 25.583 C 138.478 26.775,138.750 27.879,138.838 28.037 C 138.925 28.194,139.184 29.192,139.414 30.253 C 139.643 31.315,139.877 32.367,139.934 32.592 C 140.036 32.999,140.039 33.000,142.255 33.000 L 144.474 33.000 144.589 32.458 C 144.653 32.160,144.762 31.842,144.831 31.750 C 144.961 31.577,145.745 28.115,145.934 26.875 C 145.994 26.485,146.096 26.167,146.161 26.167 C 146.225 26.167,146.491 25.135,146.752 23.875 C 147.012 22.615,147.280 21.546,147.346 21.500 C 147.412 21.454,147.605 20.742,147.775 19.917 L 148.083 18.417 148.127 25.708 L 148.170 33.000 150.252 33.000 L 152.333 33.000 152.333 22.667 L 152.333 12.333 149.011 12.333 C 145.991 12.333,145.681 12.360,145.604 12.625 C 145.558 12.785,145.388 13.554,145.227 14.333 C 145.066 15.112,144.876 15.791,144.804 15.841 C 144.732 15.891,144.474 16.866,144.230 18.008 C 143.987 19.149,143.723 20.108,143.644 20.139 C 143.565 20.169,143.500 20.310,143.500 20.452 C 143.500 20.929,142.596 24.583,142.464 24.639 C 142.392 24.669,142.327 24.894,142.320 25.139 C 142.304 25.697,142.278 25.618,141.822 23.583 C 141.617 22.667,141.397 21.879,141.335 21.833 C 141.272 21.787,141.143 21.375,141.047 20.917 C 140.602 18.779,140.262 17.409,140.158 17.333 C 140.095 17.287,139.831 16.313,139.571 15.167 C 139.312 14.021,139.039 13.058,138.966 13.028 C 138.893 12.997,138.833 12.828,138.833 12.653 C 138.833 12.349,138.674 12.333,135.500 12.333 L 132.167 12.333 132.167 22.667 M156.667 22.667 L 156.667 33.000 164.750 33.000 L 172.833 33.000 172.833 31.167 L 172.833 29.333 167.000 29.333 L 161.167 29.333 161.167 26.667 L 161.167 24.000 166.417 24.000 L 171.667 24.000 171.667 22.083 L 171.667 20.167 166.417 20.167 L 161.167 20.167 161.167 18.083 L 161.167 16.000 166.750 16.000 L 172.333 16.000 172.333 14.167 L 172.333 12.333 164.500 12.333 L 156.667 12.333 156.667 22.667 M183.500 14.167 L 183.500 16.000 186.583 16.000 L 189.667 16.000 189.667 24.500 L 189.667 33.000 191.917 33.000 L 194.167 33.000 194.167 24.500 L 194.167 16.000 197.167 16.000 L 200.167 16.000 200.167 14.167 L 200.167 12.333 191.833 12.333 L 183.500 12.333 183.500 14.167 M239.667 12.579 C 239.667 12.719,239.610 12.834,239.542 12.834 C 239.473 12.834,239.192 13.528,238.917 14.376 C 238.642 15.223,238.367 15.955,238.306 16.002 C 238.244 16.048,237.989 16.686,237.740 17.418 C 237.490 18.151,237.230 18.825,237.160 18.917 C 237.091 19.008,236.799 19.754,236.510 20.575 C 236.222 21.395,235.927 22.145,235.856 22.241 C 235.784 22.338,235.506 23.092,235.237 23.917 C 234.969 24.742,234.698 25.440,234.635 25.469 C 234.572 25.498,234.317 26.135,234.069 26.885 C 233.820 27.636,233.571 28.287,233.514 28.333 C 233.457 28.379,233.230 28.942,233.010 29.583 C 232.789 30.225,232.473 31.014,232.308 31.336 C 232.143 31.658,231.959 32.164,231.900 32.461 L 231.792 33.000 234.211 33.000 L 236.631 33.000 236.745 32.544 C 236.808 32.294,237.041 31.691,237.263 31.206 C 237.485 30.721,237.667 30.281,237.667 30.229 C 237.667 30.177,237.784 29.729,237.928 29.234 L 238.190 28.333 242.172 28.333 L 246.154 28.333 246.344 29.042 C 246.449 29.431,246.591 29.787,246.659 29.833 C 246.728 29.879,246.994 30.554,247.250 31.333 C 247.831 33.098,247.632 32.994,250.458 32.997 C 252.766 33.000,253.362 32.846,252.680 32.425 C 252.595 32.373,252.322 31.712,252.072 30.957 C 251.822 30.201,251.559 29.545,251.487 29.498 C 251.416 29.450,251.157 28.813,250.911 28.081 C 250.666 27.349,250.411 26.712,250.345 26.667 C 250.279 26.621,250.008 25.946,249.742 25.167 C 249.477 24.387,249.205 23.711,249.139 23.663 C 249.073 23.615,248.782 22.865,248.492 21.996 C 248.202 21.127,247.897 20.333,247.813 20.230 C 247.730 20.127,247.476 19.499,247.250 18.833 C 247.024 18.168,246.768 17.539,246.681 17.434 C 246.595 17.330,246.323 16.646,246.079 15.914 C 245.834 15.182,245.565 14.499,245.480 14.396 C 245.396 14.293,245.190 13.805,245.023 13.313 L 244.719 12.417 242.193 12.371 C 240.019 12.331,239.667 12.360,239.667 12.579 M255.167 22.663 L 255.167 33.000 257.250 33.000 L 259.333 33.000 259.351 25.875 C 259.364 20.706,259.415 18.956,259.535 19.500 C 259.627 19.912,259.755 20.287,259.820 20.333 C 259.885 20.379,260.149 21.429,260.407 22.667 C 260.664 23.904,260.925 24.954,260.987 25.000 C 261.048 25.046,261.349 26.244,261.655 27.663 C 261.961 29.082,262.278 30.357,262.360 30.496 C 262.441 30.636,262.603 31.238,262.720 31.833 L 262.931 32.917 265.181 32.963 L 267.431 33.009 267.818 31.129 C 268.031 30.096,268.257 29.212,268.322 29.167 C 268.386 29.121,268.649 28.071,268.907 26.833 C 269.164 25.596,269.428 24.546,269.492 24.500 C 269.557 24.454,269.823 23.404,270.083 22.167 C 270.344 20.929,270.612 19.879,270.679 19.833 C 270.745 19.787,270.835 19.563,270.877 19.333 C 270.920 19.104,270.965 22.085,270.977 25.958 L 271.000 33.000 273.083 33.000 L 275.167 33.000 275.167 22.667 L 275.167 12.333 271.911 12.333 C 268.957 12.333,268.648 12.360,268.566 12.625 C 268.516 12.785,268.411 13.039,268.332 13.189 C 268.252 13.339,267.943 14.577,267.644 15.939 C 267.345 17.302,267.054 18.454,266.997 18.500 C 266.897 18.581,266.463 20.369,266.117 22.125 C 266.022 22.606,265.890 23.000,265.824 23.000 C 265.758 23.000,265.608 23.506,265.491 24.125 C 265.273 25.271,264.866 25.114,264.841 23.875 C 264.837 23.669,264.758 23.500,264.667 23.500 C 264.575 23.500,264.500 23.386,264.500 23.248 C 264.500 22.847,263.678 19.445,263.509 19.146 C 263.425 18.997,263.152 17.947,262.902 16.812 C 262.651 15.678,262.393 14.713,262.326 14.667 C 262.260 14.621,262.098 14.096,261.967 13.500 L 261.727 12.417 258.447 12.371 L 255.167 12.326 255.167 22.663 M285.342 12.651 C 285.245 12.831,285.167 13.096,285.167 13.239 C 285.167 13.383,285.101 13.500,285.021 13.500 C 284.941 13.500,284.702 14.044,284.490 14.708 C 284.278 15.373,283.940 16.254,283.740 16.667 C 283.539 17.079,283.239 17.867,283.073 18.417 C 282.907 18.967,282.708 19.459,282.632 19.512 C 282.556 19.564,282.307 20.194,282.080 20.912 C 281.852 21.630,281.596 22.301,281.512 22.403 C 281.427 22.505,281.122 23.298,280.833 24.167 C 280.545 25.035,280.250 25.784,280.178 25.831 C 280.106 25.878,279.842 26.554,279.592 27.333 C 279.341 28.113,279.065 28.837,278.977 28.943 C 278.889 29.049,278.632 29.721,278.406 30.435 C 278.179 31.150,277.921 31.779,277.832 31.834 C 277.744 31.889,277.624 32.173,277.565 32.467 L 277.458 33.000 279.900 33.000 L 282.342 33.000 282.442 32.500 C 282.497 32.225,282.597 32.000,282.664 32.000 C 282.732 32.000,282.997 31.287,283.254 30.417 C 283.511 29.546,283.784 28.833,283.861 28.833 C 283.937 28.833,284.000 28.721,284.000 28.583 C 284.000 28.368,284.547 28.333,287.921 28.333 L 291.842 28.333 291.942 28.833 C 291.997 29.108,292.098 29.333,292.168 29.333 C 292.237 29.333,292.502 29.990,292.756 30.792 C 293.009 31.594,293.268 32.287,293.329 32.333 C 293.391 32.379,293.489 32.548,293.549 32.708 C 293.644 32.968,293.924 33.000,296.078 33.000 C 298.707 33.000,298.867 32.931,298.256 32.060 C 298.122 31.869,297.815 31.121,297.572 30.398 C 297.330 29.675,297.079 29.046,297.014 29.000 C 296.949 28.954,296.687 28.317,296.430 27.583 C 296.174 26.850,295.904 26.175,295.829 26.083 C 295.755 25.991,295.488 25.316,295.237 24.583 C 294.986 23.850,294.729 23.212,294.667 23.167 C 294.605 23.121,294.305 22.371,294.000 21.500 C 293.695 20.629,293.400 19.879,293.344 19.833 C 293.289 19.787,293.036 19.153,292.783 18.423 C 292.529 17.693,292.268 17.056,292.201 17.006 C 292.135 16.957,291.864 16.279,291.599 15.500 C 291.334 14.721,291.065 14.046,291.000 14.000 C 290.936 13.954,290.772 13.579,290.636 13.167 L 290.389 12.417 287.953 12.371 C 285.678 12.328,285.505 12.346,285.342 12.651 M300.333 14.167 L 300.333 16.000 305.016 16.000 L 309.700 16.000 308.850 16.981 C 308.382 17.520,308.000 18.002,308.000 18.051 C 308.000 18.133,307.793 18.374,306.624 19.661 C 306.418 19.887,306.175 20.198,306.083 20.352 C 305.899 20.661,304.936 21.850,304.417 22.410 C 304.233 22.608,303.861 23.065,303.590 23.427 C 303.319 23.788,302.850 24.346,302.550 24.667 C 302.249 24.988,302.002 25.314,302.001 25.393 C 302.001 25.471,301.813 25.683,301.583 25.863 C 301.354 26.043,301.167 26.292,301.167 26.417 C 301.167 26.541,300.998 26.779,300.791 26.946 C 300.584 27.113,300.290 27.438,300.137 27.667 C 299.984 27.896,299.665 28.301,299.429 28.568 C 299.019 29.030,299.000 29.141,299.000 31.026 L 299.000 33.000 307.500 33.000 L 316.000 33.000 316.000 31.167 L 316.000 29.333 310.422 29.333 C 304.243 29.333,304.468 29.381,305.490 28.297 C 306.090 27.661,306.766 26.848,307.251 26.177 C 307.479 25.862,307.724 25.562,307.797 25.510 C 307.869 25.459,308.099 25.192,308.308 24.917 C 308.891 24.149,309.693 23.178,310.292 22.516 C 310.590 22.186,310.874 21.792,310.924 21.640 C 310.973 21.488,311.198 21.242,311.423 21.094 C 311.649 20.947,311.833 20.722,311.833 20.594 C 311.833 20.467,312.058 20.174,312.333 19.942 C 312.608 19.711,312.833 19.471,312.833 19.410 C 312.833 19.274,313.477 18.477,315.173 16.512 C 315.654 15.954,315.667 15.895,315.667 14.137 L 315.667 12.333 308.000 12.333 L 300.333 12.333 300.333 14.167 M341.833 22.662 L 341.833 33.000 343.917 33.000 L 346.000 33.000 346.000 26.667 C 346.000 23.183,346.056 20.335,346.125 20.336 C 346.194 20.338,346.472 20.788,346.744 21.336 C 347.016 21.885,347.299 22.333,347.373 22.333 C 347.448 22.333,347.585 22.536,347.680 22.785 C 347.774 23.033,348.147 23.670,348.509 24.200 C 348.871 24.729,349.167 25.239,349.167 25.331 C 349.167 25.424,349.306 25.640,349.477 25.811 C 349.648 25.981,350.004 26.525,350.268 27.019 C 350.531 27.513,350.827 27.968,350.924 28.031 C 351.021 28.094,351.278 28.526,351.495 28.990 C 351.712 29.454,351.945 29.833,352.011 29.833 C 352.077 29.833,352.335 30.227,352.584 30.708 C 352.833 31.190,353.169 31.733,353.332 31.917 C 353.495 32.100,353.680 32.419,353.742 32.625 C 353.853 32.991,353.915 33.000,356.178 33.000 L 358.500 33.000 358.500 22.667 L 358.500 12.333 356.417 12.333 L 354.333 12.333 354.333 18.941 L 354.333 25.550 353.913 24.758 C 353.681 24.323,353.306 23.724,353.079 23.426 C 352.852 23.129,352.667 22.799,352.667 22.693 C 352.667 22.587,352.535 22.363,352.375 22.195 C 352.215 22.027,351.866 21.483,351.601 20.986 C 351.336 20.490,350.998 19.933,350.850 19.750 C 350.702 19.567,350.395 19.060,350.169 18.625 C 349.942 18.190,349.712 17.833,349.658 17.833 C 349.604 17.833,349.386 17.477,349.174 17.042 C 348.963 16.606,348.706 16.175,348.603 16.083 C 348.501 15.992,348.198 15.504,347.930 15.000 C 347.662 14.496,347.390 14.046,347.324 14.000 C 347.259 13.954,347.017 13.579,346.786 13.167 L 346.366 12.417 344.100 12.370 L 341.833 12.324 341.833 22.662 M363.167 22.667 L 363.167 33.000 371.083 33.000 L 379.000 33.000 379.000 31.167 L 379.000 29.333 373.250 29.333 L 367.500 29.333 367.500 26.667 L 367.500 24.000 372.667 24.000 L 377.833 24.000 377.833 22.083 L 377.833 20.167 372.667 20.167 L 367.500 20.167 367.500 18.083 L 367.500 16.000 373.083 16.000 L 378.667 16.000 378.667 14.167 L 378.667 12.333 370.917 12.333 L 363.167 12.333 363.167 22.667 M70.167 22.750 L 70.167 33.000 77.667 33.000 L 85.167 33.000 85.167 31.167 L 85.167 29.333 79.917 29.333 L 74.667 29.333 74.667 20.917 L 74.667 12.500 72.417 12.500 L 70.167 12.500 70.167 22.750 M120.584 16.091 C 121.494 16.355,123.167 17.751,123.167 18.245 C 123.167 18.370,123.244 18.498,123.339 18.530 C 124.267 18.839,124.277 26.008,123.350 26.667 C 123.285 26.712,123.064 27.028,122.858 27.367 C 121.529 29.553,118.151 30.166,115.880 28.632 C 114.907 27.976,114.000 26.866,114.000 26.333 C 114.000 26.229,113.893 26.036,113.762 25.905 C 113.097 25.240,113.164 19.000,113.836 19.000 C 113.904 19.000,114.055 18.756,114.172 18.458 C 114.973 16.418,117.941 15.322,120.584 16.091 M213.765 16.158 C 215.585 16.798,216.890 18.745,217.176 21.246 C 217.358 22.846,217.115 25.408,216.747 25.777 C 216.611 25.913,216.498 26.150,216.495 26.304 C 216.481 27.026,215.156 28.467,213.883 29.142 C 212.064 30.107,208.641 29.103,207.633 27.309 C 207.434 26.956,207.221 26.667,207.158 26.667 C 206.174 26.667,206.240 19.403,207.233 18.410 C 207.380 18.263,207.500 18.085,207.500 18.014 C 207.500 17.686,208.988 16.465,209.742 16.174 C 210.867 15.742,212.561 15.735,213.765 16.158 M330.136 16.090 C 331.002 16.347,332.667 17.728,332.667 18.189 C 332.667 18.300,332.791 18.528,332.943 18.696 C 333.594 19.415,333.864 22.959,333.426 25.026 C 332.743 28.246,329.560 30.249,326.667 29.279 C 325.953 29.040,324.439 28.033,324.233 27.661 C 324.151 27.512,323.933 27.096,323.750 26.736 C 323.567 26.377,323.365 26.044,323.301 25.996 C 322.693 25.536,322.711 19.616,323.322 19.167 C 323.385 19.121,323.540 18.821,323.667 18.500 C 324.494 16.410,327.476 15.300,330.136 16.090 M243.163 20.575 C 243.357 21.001,243.671 21.853,243.860 22.467 C 244.049 23.081,244.259 23.621,244.326 23.667 C 244.394 23.712,244.499 23.956,244.561 24.208 L 244.673 24.667 242.253 24.667 C 240.339 24.667,239.833 24.620,239.833 24.443 C 239.833 24.175,240.412 22.454,240.738 21.750 C 240.866 21.475,241.139 20.688,241.344 20.000 C 241.550 19.313,241.769 18.712,241.830 18.667 C 241.891 18.621,242.002 18.433,242.077 18.250 C 242.189 17.975,242.265 18.082,242.511 18.858 C 242.675 19.376,242.968 20.148,243.163 20.575 M288.638 19.992 C 288.710 20.042,288.937 20.603,289.143 21.237 C 289.348 21.872,289.700 22.793,289.925 23.284 C 290.584 24.724,290.667 24.667,287.917 24.667 C 286.095 24.667,285.500 24.615,285.499 24.458 C 285.498 24.190,286.049 22.609,286.182 22.500 C 286.264 22.433,286.873 20.548,287.274 19.125 C 287.319 18.965,287.418 18.833,287.493 18.833 C 287.569 18.833,287.687 18.627,287.756 18.375 C 287.873 17.949,287.903 17.986,288.194 18.909 C 288.366 19.455,288.566 19.942,288.638 19.992 " stroke="none" fill="#040404" fill-rule="evenodd"></path><path id="path2" d="" stroke="none" fill="#fcb41c" fill-rule="evenodd"></path><path id="path3" d="" stroke="none" fill="#406010" fill-rule="evenodd"></path><path id="path4" d="" stroke="none" fill="#440410" fill-rule="evenodd"></path></g></svg>